<svg xmlns="http://www.w3.org/2000/svg" id="svg6485" width="32" height="32" version="1.1" viewBox="0 0 32 32"><g id="layer1" transform="translate(0 -1020.362)"><g id="g15302" transform="translate(-438 -498)"><circle style="isolation:auto;mix-blend-mode:normal;solid-color:#000;solid-opacity:1" id="circle14210" cx="461.999" cy="1542.362" r="6.125" fill="#f6d397" fill-opacity="1" fill-rule="nonzero" stroke="none" stroke-dasharray="none" stroke-dashoffset="0" stroke-linecap="round" stroke-linejoin="round" stroke-miterlimit="4" stroke-opacity="1" stroke-width=".5" clip-rule="nonzero" color="#000" color-interpolation="sRGB" color-interpolation-filters="linearRGB" color-rendering="auto" display="inline" enable-background="accumulate" image-rendering="auto" opacity="1" overflow="visible" shape-rendering="auto" text-rendering="auto" visibility="visible"/><path style="line-height:normal;text-indent:0;text-align:start;text-decoration-line:none;text-decoration-style:solid;text-decoration-color:#000;text-transform:none;block-progression:tb;white-space:normal;isolation:auto;mix-blend-mode:normal;solid-color:#000;solid-opacity:1" id="path14212" fill="#f9ebd5" fill-opacity="1" fill-rule="nonzero" stroke="none" stroke-dasharray="none" stroke-dashoffset="0" stroke-linecap="butt" stroke-linejoin="round" stroke-miterlimit="4" stroke-opacity="1" stroke-width="1" d="m 466,1536.6278 0,-7.5547 0,-1.7109 -27,0 0,18 c 0,0.5627 0.43734,1 1,1 l 16.25977,0 c -3.19277,-8.0331 3.48159,-12.8612 9.74023,-9.7344 z" baseline-shift="baseline" clip-rule="nonzero" color="#000" color-interpolation="sRGB" color-interpolation-filters="linearRGB" color-rendering="auto" direction="ltr" display="inline" enable-background="accumulate" font-family="sans-serif" font-size="medium" font-stretch="normal" font-style="normal" font-variant="normal" font-weight="400" image-rendering="auto" letter-spacing="normal" opacity="1" overflow="visible" paint-order="fill markers stroke" shape-rendering="auto" text-anchor="start" text-decoration="none" text-rendering="auto" visibility="visible" word-spacing="normal" writing-mode="lr-tb"/><path id="path14214" d="M 450.62305,1527.3622 439,1538.9833 l 0,2.6172 14.23828,-14.2383 -2.61523,0 z m 5.125,0 -16.74805,16.75 0,1.25 c 0,0.5627 0.43734,1 1,1 l 0.36328,0 19.00195,-19 -3.61718,0 z m 6.125,0 -19.00196,19 10.86719,0 1.94336,-1.9434 c -1.31461,-6.0997 3.36681,-9.7794 8.46875,-8.4668 l 1.84961,-1.8496 0,-5.0293 0,-1.7109 -4.12695,0 z" style="isolation:auto;mix-blend-mode:normal;solid-color:#000;solid-opacity:1" fill="#fff7f0" fill-opacity="1" fill-rule="nonzero" stroke="none" stroke-dasharray="none" stroke-dashoffset="0" stroke-linecap="round" stroke-linejoin="round" stroke-miterlimit="4" stroke-opacity="1" stroke-width=".5" clip-rule="nonzero" color="#000" color-interpolation="sRGB" color-interpolation-filters="linearRGB" color-rendering="auto" display="inline" enable-background="accumulate" image-rendering="auto" opacity="1" overflow="visible" shape-rendering="auto" text-rendering="auto" visibility="visible"/><path style="isolation:auto;mix-blend-mode:normal;solid-color:#000;solid-opacity:1" id="path14216" fill="#fff" fill-opacity="1" fill-rule="nonzero" stroke="none" stroke-dasharray="none" stroke-dashoffset="0" stroke-linecap="butt" stroke-linejoin="round" stroke-miterlimit="4" stroke-opacity="1" stroke-width="1" d="m 899.22399,1351.5236 c -0.20641,0.2064 -2.23572,-0.8084 -2.52764,-0.8084 -0.29192,0 -2.32123,1.0148 -2.52764,0.8084 -0.20642,-0.2064 0.80842,-2.2357 0.80842,-2.5276 0,-0.2919 -1.01484,-2.3213 -0.80842,-2.5277 0.20641,-0.2064 2.23572,0.8084 2.52764,0.8084 0.29192,0 2.32123,-1.0148 2.52764,-0.8084 0.20642,0.2064 -0.80842,2.2358 -0.80842,2.5277 0,0.2919 1.01484,2.3212 0.80842,2.5276 z" clip-rule="nonzero" color="#000" color-interpolation="sRGB" color-interpolation-filters="linearRGB" color-rendering="auto" display="inline" enable-background="accumulate" image-rendering="auto" opacity="1" overflow="visible" shape-rendering="auto" text-rendering="auto" transform="scale(.50645) rotate(-45 2906.713 2199.56)" visibility="visible"/><path id="path14218" fill="#fff" fill-opacity="1" fill-rule="nonzero" stroke="none" stroke-dasharray="none" stroke-dashoffset="0" stroke-linecap="butt" stroke-linejoin="round" stroke-miterlimit="4" stroke-opacity="1" stroke-width="1" d="m 899.22399,1351.5236 c -0.20641,0.2064 -2.23572,-0.8084 -2.52764,-0.8084 -0.29192,0 -2.32123,1.0148 -2.52764,0.8084 -0.20642,-0.2064 0.80842,-2.2357 0.80842,-2.5276 0,-0.2919 -1.01484,-2.3213 -0.80842,-2.5277 0.20641,-0.2064 2.23572,0.8084 2.52764,0.8084 0.29192,0 2.32123,-1.0148 2.52764,-0.8084 0.20642,0.2064 -0.80842,2.2358 -0.80842,2.5277 0,0.2919 1.01484,2.3212 0.80842,2.5276 z" clip-rule="nonzero" color="#000" color-interpolation="sRGB" color-interpolation-filters="linearRGB" color-rendering="auto" enable-background="accumulate" image-rendering="auto" opacity="1" text-rendering="auto" transform="scale(.38406) rotate(-45 4255.461 2366.998)" style="isolation:auto;mix-blend-mode:normal;solid-color:#000;solid-opacity:1" display="inline" overflow="visible" shape-rendering="auto" visibility="visible"/><path style="isolation:auto;mix-blend-mode:normal;solid-color:#000;solid-opacity:1" id="path14220" fill="#fff" fill-opacity="1" fill-rule="nonzero" stroke="none" stroke-dasharray="none" stroke-dashoffset="0" stroke-linecap="butt" stroke-linejoin="round" stroke-miterlimit="4" stroke-opacity="1" stroke-width="1" d="m 899.22399,1351.5236 c -0.20641,0.2064 -2.23572,-0.8084 -2.52764,-0.8084 -0.29192,0 -2.32123,1.0148 -2.52764,0.8084 -0.20642,-0.2064 0.80842,-2.2357 0.80842,-2.5276 0,-0.2919 -1.01484,-2.3213 -0.80842,-2.5277 0.20641,-0.2064 2.23572,0.8084 2.52764,0.8084 0.29192,0 2.32123,-1.0148 2.52764,-0.8084 0.20642,0.2064 -0.80842,2.2358 -0.80842,2.5277 0,0.2919 1.01484,2.3212 0.80842,2.5276 z" clip-rule="nonzero" color="#000" color-interpolation="sRGB" color-interpolation-filters="linearRGB" color-rendering="auto" display="inline" enable-background="accumulate" image-rendering="auto" opacity="1" overflow="visible" shape-rendering="auto" text-rendering="auto" transform="scale(.38406) rotate(-45 4227.94 2324.87)" visibility="visible"/><path id="path14238" fill="#8d6c9f" d="m 463.03516,1538.4989 -0.74219,0.836 -0.63477,2.3691 c -0.23937,0.1253 -0.40819,0.3693 -0.4082,0.6582 10e-6,0.4142 0.33578,0.75 0.75,0.75 0.0126,0 0.0227,-0.01 0.0352,-0.01 l 1.73242,1.7324 1.06054,0.3535 -0.35351,-1.0605 -1.73242,-1.7324 c 6.1e-4,-0.013 0.008,-0.023 0.008,-0.035 0,-0.148 -0.0529,-0.2783 -0.12695,-0.3945 l 0.63672,-2.375 -0.22461,-1.0938 z" style="line-height:normal;text-indent:0;text-align:start;text-decoration-line:none;text-decoration-style:solid;text-decoration-color:#000;text-transform:none;block-progression:tb;white-space:normal;isolation:auto;mix-blend-mode:normal;solid-color:#000;solid-opacity:1" fill-opacity="1" fill-rule="nonzero" stroke="none" stroke-dasharray="none" stroke-dashoffset="0" stroke-linecap="butt" stroke-linejoin="round" stroke-miterlimit="4" stroke-opacity="1" stroke-width="1" baseline-shift="baseline" clip-rule="nonzero" color="#000" color-interpolation="sRGB" color-interpolation-filters="linearRGB" color-rendering="auto" direction="ltr" display="inline" enable-background="accumulate" font-family="sans-serif" font-size="medium" font-stretch="normal" font-style="normal" font-variant="normal" font-weight="400" image-rendering="auto" letter-spacing="normal" opacity="1" overflow="visible" paint-order="fill markers stroke" shape-rendering="auto" text-anchor="start" text-decoration="none" text-rendering="auto" visibility="visible" word-spacing="normal" writing-mode="lr-tb"/><path style="line-height:normal;text-indent:0;text-align:start;text-decoration-line:none;text-decoration-style:solid;text-decoration-color:#000;text-transform:none;block-progression:tb;white-space:normal;isolation:auto;mix-blend-mode:normal;solid-color:#000;solid-opacity:1" id="path14240" fill="#c2cde7" fill-opacity="1" fill-rule="nonzero" stroke="none" stroke-dasharray="none" stroke-dashoffset="0" stroke-linecap="butt" stroke-linejoin="round" stroke-miterlimit="4" stroke-opacity="1" stroke-width="1" d="m 442.5,1519.3622 c -0.28565,0 -0.5,0.2144 -0.5,0.5 l 0,3 c 0,0.2857 0.21435,0.5 0.5,0.5 0.28565,0 0.5,-0.2143 0.5,-0.5 l 0,-3 c 0,-0.2856 -0.21435,-0.5 -0.5,-0.5 z m 5,0 c -0.28565,0 -0.5,0.2144 -0.5,0.5 l 0,3 c 0,0.2857 0.21435,0.5 0.5,0.5 0.28565,0 0.5,-0.2143 0.5,-0.5 l 0,-3 c 0,-0.2856 -0.21435,-0.5 -0.5,-0.5 z m 5,0 c -0.28565,0 -0.5,0.2144 -0.5,0.5 l 0,3 c 0,0.2857 0.21435,0.5 0.5,0.5 0.28565,0 0.5,-0.2143 0.5,-0.5 l 0,-3 c 0,-0.2856 -0.21435,-0.5 -0.5,-0.5 z m 5,0 c -0.28565,0 -0.5,0.2144 -0.5,0.5 l 0,3 c 0,0.2857 0.21435,0.5 0.5,0.5 0.28565,0 0.5,-0.2143 0.5,-0.5 l 0,-3 c 0,-0.2856 -0.21435,-0.5 -0.5,-0.5 z m 5,0 c -0.28565,0 -0.5,0.2144 -0.5,0.5 l 0,3 c 0,0.2857 0.21435,0.5 0.5,0.5 0.28565,0 0.5,-0.2143 0.5,-0.5 l 0,-0.5 0,-1 0,-1.5 c 0,-0.2856 -0.21435,-0.5 -0.5,-0.5 z" baseline-shift="baseline" clip-rule="nonzero" color="#000" color-interpolation="sRGB" color-interpolation-filters="linearRGB" color-rendering="auto" direction="ltr" display="inline" enable-background="accumulate" font-family="sans-serif" font-size="medium" font-stretch="normal" font-style="normal" font-variant="normal" font-weight="400" image-rendering="auto" letter-spacing="normal" opacity="1" overflow="visible" paint-order="fill markers stroke" shape-rendering="auto" text-anchor="start" text-decoration="none" text-rendering="auto" visibility="visible" word-spacing="normal" writing-mode="lr-tb"/><path id="path14244" fill="#ed7899" d="m 440,1522.3622 1,0 0,0.5 c 0,0.8224 0.67765,1.5 1.5,1.5 0.82235,0 1.5,-0.6776 1.5,-1.5 l 0,-0.5 2,0 0,0.5 c 0,0.8224 0.67765,1.5 1.5,1.5 0.82235,0 1.5,-0.6776 1.5,-1.5 l 0,-0.5 2,0 0,0.5 c 0,0.8224 0.67765,1.5 1.5,1.5 0.82235,0 1.5,-0.6776 1.5,-1.5 l 0,-0.5 2,0 0,0.5 c 0,0.8224 0.67765,1.5 1.5,1.5 0.82235,0 1.5,-0.6776 1.5,-1.5 l 0,-0.5 2,0 0,0.5 c 0,0.8224 0.67765,1.5 1.5,1.5 0.82235,0 1.5,-0.6776 1.5,-1.5 l 0,-0.5 1,0 c 0.5627,0 1,0.4374 1,1 l 0,3 -27,0 0,-3 c 0,-0.5626 0.4373,-1 1,-1 z" style="line-height:normal;text-indent:0;text-align:start;text-decoration-line:none;text-decoration-style:solid;text-decoration-color:#000;text-transform:none;block-progression:tb;white-space:normal;isolation:auto;mix-blend-mode:normal;solid-color:#000;solid-opacity:1" fill-opacity="1" fill-rule="nonzero" stroke="none" stroke-dasharray="none" stroke-dashoffset="0" stroke-linecap="butt" stroke-linejoin="round" stroke-miterlimit="4" stroke-opacity="1" stroke-width="1" baseline-shift="baseline" clip-rule="nonzero" color="#000" color-interpolation="sRGB" color-interpolation-filters="linearRGB" color-rendering="auto" direction="ltr" display="inline" enable-background="accumulate" font-family="sans-serif" font-size="medium" font-stretch="normal" font-style="normal" font-variant="normal" font-weight="400" image-rendering="auto" letter-spacing="normal" opacity="1" overflow="visible" paint-order="fill markers stroke" shape-rendering="auto" text-anchor="start" text-decoration="none" text-rendering="auto" visibility="visible" word-spacing="normal" writing-mode="lr-tb"/><path id="path14246" fill="#e3f2ff" d="m 441,1530.3622 0,1 3,0 0,-1 z m 16,0 0,2 2,0 0,-2 z m 5,0 0,2 2,0 0,-2 z m -21,4 0,1 3,0 0,-1 z m 6,1 0,2 2,0 0,-2 z m 5,0 0,2 2,0 0,-2 z m 5,0 0,2 0.11133,0 c 0.40981,-0.4008 0.86989,-0.763 1.38867,-1.0625 0.16403,-0.095 0.3318,-0.1759 0.5,-0.2559 l 0,-0.6816 z m 5,0 0,0.01 c 0.67975,10e-4 1.35265,0.1018 2,0.2949 l 0,-0.3027 -1.25,0 z m -21,3 0,1 3,0 0,-1 z m 6,2 0,2 2,0 0,-2 z m 5,0 0,2 2,0 0,-2 z m -11,2 0,1 3,0 0,-1 z" style="line-height:normal;text-indent:0;text-align:start;text-decoration-line:none;text-decoration-style:solid;text-decoration-color:#000;text-transform:none;block-progression:tb;white-space:normal;isolation:auto;mix-blend-mode:normal;solid-color:#000;solid-opacity:1" fill-opacity="1" fill-rule="nonzero" stroke="none" stroke-dasharray="none" stroke-dashoffset="0" stroke-linecap="butt" stroke-linejoin="round" stroke-miterlimit="4" stroke-opacity="1" stroke-width="1" baseline-shift="baseline" clip-rule="nonzero" color="#000" color-interpolation="sRGB" color-interpolation-filters="linearRGB" color-rendering="auto" direction="ltr" display="inline" enable-background="accumulate" font-family="sans-serif" font-size="medium" font-stretch="normal" font-style="normal" font-variant="normal" font-weight="400" image-rendering="auto" letter-spacing="normal" opacity="1" overflow="visible" paint-order="fill markers stroke" shape-rendering="auto" text-anchor="start" text-decoration="none" text-rendering="auto" visibility="visible" word-spacing="normal" writing-mode="lr-tb"/><path style="line-height:normal;text-indent:0;text-align:start;text-decoration-line:none;text-decoration-style:solid;text-decoration-color:#000;text-transform:none;block-progression:tb;white-space:normal;isolation:auto;mix-blend-mode:normal;solid-color:#000;solid-opacity:1" id="path14263" fill="#8d6c9f" fill-opacity="1" fill-rule="nonzero" stroke="none" stroke-dasharray="none" stroke-dashoffset="0" stroke-linecap="butt" stroke-linejoin="round" stroke-miterlimit="4" stroke-opacity="1" stroke-width="1" d="m 442.5,1518.3622 c -0.82235,0 -1.5,0.6777 -1.5,1.5 l 0,1.5 -1,0 c -1.09938,0 -2,0.9007 -2,2 l 0,4 0,18 c 0,1.0994 0.90064,2 2,2 l 17.10938,0 c 2.1882,2.1381 5.61409,2.6655 8.39062,1.0625 3.34295,-1.93 4.49059,-6.2196 2.56055,-9.5625 -0.2994,-0.5186 -0.65994,-0.977 -1.06055,-1.3867 l 0,-8.4024 0,-2.2109 0,-3.5 c 0,-1.0993 -0.90062,-2 -2,-2 l -1,0 0,-1.5 c 0,-0.8223 -0.67765,-1.5 -1.5,-1.5 -0.82235,0 -1.5,0.6777 -1.5,1.5 l 0,1.5 -2,0 0,-1.5 c 0,-0.8223 -0.67765,-1.5 -1.5,-1.5 -0.82235,0 -1.5,0.6777 -1.5,1.5 l 0,1.5 -2,0 0,-1.5 c 0,-0.8223 -0.67765,-1.5 -1.5,-1.5 -0.82235,0 -1.5,0.6777 -1.5,1.5 l 0,1.5 -2,0 0,-1.5 c 0,-0.8223 -0.67765,-1.5 -1.5,-1.5 -0.82235,0 -1.5,0.6777 -1.5,1.5 l 0,1.5 -2,0 0,-1.5 c 0,-0.8223 -0.67765,-1.5 -1.5,-1.5 z m 0,1 c 0.28565,0 0.5,0.2144 0.5,0.5 l 0,3 c 0,0.2857 -0.21435,0.5 -0.5,0.5 -0.28565,0 -0.5,-0.2143 -0.5,-0.5 l 0,-3 c 0,-0.2856 0.21435,-0.5 0.5,-0.5 z m 5,0 c 0.28565,0 0.5,0.2144 0.5,0.5 l 0,3 c 0,0.2857 -0.21435,0.5 -0.5,0.5 -0.28565,0 -0.5,-0.2143 -0.5,-0.5 l 0,-3 c 0,-0.2856 0.21435,-0.5 0.5,-0.5 z m 5,0 c 0.28565,0 0.5,0.2144 0.5,0.5 l 0,3 c 0,0.2857 -0.21435,0.5 -0.5,0.5 -0.28565,0 -0.5,-0.2143 -0.5,-0.5 l 0,-3 c 0,-0.2856 0.21435,-0.5 0.5,-0.5 z m 5,0 c 0.28565,0 0.5,0.2144 0.5,0.5 l 0,3 c 0,0.2857 -0.21435,0.5 -0.5,0.5 -0.28565,0 -0.5,-0.2143 -0.5,-0.5 l 0,-3 c 0,-0.2856 0.21435,-0.5 0.5,-0.5 z m 5,0 c 0.28565,0 0.5,0.2144 0.5,0.5 l 0,1.5 0,1 0,0.5 c 0,0.2857 -0.21435,0.5 -0.5,0.5 -0.28565,0 -0.5,-0.2143 -0.5,-0.5 l 0,-3 c 0,-0.2856 0.21435,-0.5 0.5,-0.5 z m -22.5,3 1,0 0,0.5 c 0,0.8224 0.67765,1.5 1.5,1.5 0.82235,0 1.5,-0.6776 1.5,-1.5 l 0,-0.5 2,0 0,0.5 c 0,0.8224 0.67765,1.5 1.5,1.5 0.82235,0 1.5,-0.6776 1.5,-1.5 l 0,-0.5 2,0 0,0.5 c 0,0.8224 0.67765,1.5 1.5,1.5 0.82235,0 1.5,-0.6776 1.5,-1.5 l 0,-0.5 2,0 0,0.5 c 0,0.8224 0.67765,1.5 1.5,1.5 0.82235,0 1.5,-0.6776 1.5,-1.5 l 0,-0.5 2,0 0,0.5 c 0,0.8224 0.67765,1.5 1.5,1.5 0.82235,0 1.5,-0.6776 1.5,-1.5 l 0,-0.5 1,0 c 0.5627,0 1,0.4374 1,1 l 0,3 -27,0 0,-3 c 0,-0.5626 0.4373,-1 1,-1 z m -1,5 27,0 0,1.7109 0,7.5547 c -0.31878,-0.2217 -0.65201,-0.4193 -1,-0.584 l 0,-1.1816 c -3e-5,-0.2761 -0.22387,-0.5 -0.5,-0.5 l -1.75,0 -1.25,0 c -0.27613,0 -0.49997,0.2239 -0.5,0.5 l 0,0.5762 c -0.33571,0.048 -0.66974,0.1241 -1,0.2226 l 0,-0.7988 c -3e-5,-0.2761 -0.22387,-0.5 -0.5,-0.5 l -3,0 c -0.29691,0 -0.5,0.2693 -0.5,0.5 l 0,3 c 2e-5,0.2035 0.12231,0.3751 0.29688,0.4531 -1.52985,2.1632 -1.76878,5.1057 -0.35938,7.5469 0.10019,0.1735 0.20982,0.3384 0.32227,0.5 l -16.25977,0 c -0.56266,0 -1,-0.4373 -1,-1 z m 1.5,2 c -0.27613,0 -0.49997,0.2239 -0.5,0.5 l 0,2 c 3e-5,0.2761 0.22387,0.5 0.5,0.5 l 4,0 c 0.27613,0 0.49997,-0.2239 0.5,-0.5 l 0,-2 c -3e-5,-0.2761 -0.22387,-0.5 -0.5,-0.5 z m 16,0 c -0.27613,0 -0.49997,0.2239 -0.5,0.5 l 0,3 c 3e-5,0.2761 0.22387,0.5 0.5,0.5 l 3,0 c 0.27613,0 0.49997,-0.2239 0.5,-0.5 l 0,-3 c -3e-5,-0.2761 -0.22387,-0.5 -0.5,-0.5 z m 5,0 c -0.27613,0 -0.49997,0.2239 -0.5,0.5 l 0,3 c 3e-5,0.2761 0.22387,0.5 0.5,0.5 l 3,0 c 0.27613,0 0.49997,-0.2239 0.5,-0.5 l 0,-3 c -3e-5,-0.2761 -0.22387,-0.5 -0.5,-0.5 z m -20.5,1 3,0 0,1 -3,0 z m 16,0 2,0 0,2 -2,0 z m 5,0 2,0 0,2 -2,0 z m -21.5,3 c -0.27613,0 -0.49997,0.2239 -0.5,0.5 l 0,2 c 3e-5,0.2761 0.22387,0.5 0.5,0.5 l 4,0 c 0.27613,0 0.49997,-0.2239 0.5,-0.5 l 0,-2 c -3e-5,-0.2761 -0.22387,-0.5 -0.5,-0.5 z m 0.5,1 3,0 0,1 -3,0 z m 5.5,0 c -0.27613,0 -0.49997,0.2239 -0.5,0.5 l 0,3 c 3e-5,0.2761 0.22387,0.5 0.5,0.5 l 3,0 c 0.27613,0 0.49997,-0.2239 0.5,-0.5 l 0,-3 c -3e-5,-0.2761 -0.22387,-0.5 -0.5,-0.5 z m 5,0 c -0.27613,0 -0.49997,0.2239 -0.5,0.5 l 0,3 c 3e-5,0.2761 0.22387,0.5 0.5,0.5 l 3,0 c 0.27613,0 0.49997,-0.2239 0.5,-0.5 l 0,-3 c -3e-5,-0.2761 -0.22387,-0.5 -0.5,-0.5 z m -4.5,1 2,0 0,2 -2,0 z m 5,0 2,0 0,2 -2,0 z m 5,0 2,0 0,0.6816 c -0.1682,0.08 -0.33597,0.1612 -0.5,0.2559 -0.51878,0.2995 -0.97886,0.6617 -1.38867,1.0625 l -0.11133,0 z m 5,0 0.75,0 1.25,0 0,0.3027 c -0.64735,-0.1931 -1.32025,-0.2937 -2,-0.2949 l 0,-0.01 z m 0.5,1.0215 c 1.88993,0.1589 3.67286,1.2074 4.69531,2.9785 0.45791,0.7931 0.7077,1.6457 0.7793,2.5 l -0.97266,0 c -0.67616,-0.01 -0.67616,1.0096 0,1 l 0.97657,0 c -0.15887,1.89 -1.20735,3.6728 -2.97852,4.6953 -0.7925,0.4576 -1.64636,0.7075 -2.5,0.7793 l 0,-0.9746 c 0.003,-0.2815 -0.22635,-0.5103 -0.50781,-0.5059 -0.27535,0 -0.49539,0.2305 -0.49219,0.5059 l 0,0.9785 c -1.89064,-0.1584 -3.6744,-1.2068 -4.69727,-2.9785 -0.45791,-0.7931 -0.7077,-1.6457 -0.77929,-2.5 l 0.97461,0 c 0.67616,0.01 0.67616,-1.0096 0,-1 l -0.97852,0 c 0.15841,-1.8907 1.20883,-3.6744 2.98047,-4.6973 0.79317,-0.4579 1.64564,-0.7077 2.5,-0.7793 l 0,0.9766 c -0.01,0.6762 1.00956,0.6762 1,0 z m -22,0.9785 c -0.27613,0 -0.49997,0.2239 -0.5,0.5 l 0,2 c 3e-5,0.2761 0.22387,0.5 0.5,0.5 l 4,0 c 0.27613,0 0.49997,-0.2239 0.5,-0.5 l 0,-2 c -3e-5,-0.2761 -0.22387,-0.5 -0.5,-0.5 z m 0.5,1 3,0 0,1 -3,0 z m 5.5,1 c -0.27613,0 -0.49997,0.2239 -0.5,0.5 l 0,3 c 3e-5,0.2761 0.22387,0.5 0.5,0.5 l 3,0 c 0.27613,0 0.49997,-0.2239 0.5,-0.5 l 0,-3 c -3e-5,-0.2761 -0.22387,-0.5 -0.5,-0.5 z m 5,0 c -0.27613,0 -0.49997,0.2239 -0.5,0.5 l 0,3 c 3e-5,0.2761 0.22387,0.5 0.5,0.5 l 3,0 c 0.27613,0 0.49997,-0.2239 0.5,-0.5 l 0,-3 c -3e-5,-0.2761 -0.22387,-0.5 -0.5,-0.5 z m -4.5,1 2,0 0,2 -2,0 z m 5,0 2,0 0,2 -2,0 z m -11.5,1 c -0.27613,0 -0.49997,0.2239 -0.5,0.5 l 0,2 c 3e-5,0.2761 0.22387,0.5 0.5,0.5 l 4,0 c 0.27613,0 0.49997,-0.2239 0.5,-0.5 l 0,-2 c -3e-5,-0.2761 -0.22387,-0.5 -0.5,-0.5 z m 0.5,1 3,0 0,1 -3,0 z" baseline-shift="baseline" clip-rule="nonzero" color="#000" color-interpolation="sRGB" color-interpolation-filters="linearRGB" color-rendering="auto" direction="ltr" display="inline" enable-background="accumulate" font-family="sans-serif" font-size="medium" font-stretch="normal" font-style="normal" font-variant="normal" font-weight="400" image-rendering="auto" letter-spacing="normal" opacity="1" overflow="visible" paint-order="fill markers stroke" shape-rendering="auto" text-anchor="start" text-decoration="none" text-rendering="auto" visibility="visible" word-spacing="normal" writing-mode="lr-tb"/></g></g></svg>