<svg xmlns="http://www.w3.org/2000/svg" viewBox="0 0 32 32"><path fill="#ffda87" d="M6.786 14.481l-2.614 3.028-1.721-4.128z"/><path fill="#ffda87" d="M6.786 14.481l-2.614 3.028-1.721-4.128z"/><path fill="#8a8b99" d="M2.451 13.381l.924 2.217 1.581-1.581z"/><path fill="#fff" d="M6.786 14.481l3.841 3.316 3.367-13.705 9.501 2.334-3.94-3.939h-13v12.261zM6.555 19.566v4.921h2.429l.572-2.331z"/><path fill="#fff" d="M14.77 26.656l-5.214-4.5-.811 3.301 5.886 1.446c.039-.085.075-.172.139-.247zM26.619 7.194L13.994 4.092l-3.367 13.704 6.756 5.832a1 1 0 0 1 1.514 1.306l1.514 1.307a1 1 0 0 1 .104 1.41l-.496.574 5.235 1.286 4.295-17.48-2.93-4.837z"/><path fill="#66abd4" d="M13.055 6.487h-1.5v-2h2M23.722 10.601L17.896 9.17l.477-1.942L24.2 8.659"/><path fill="#d2ccd2" d="M23.495 6.426l-3.94-3.939v2.972zM29.549 12.033l-3.884-.954.954-3.885z"/><path fill="#4f5266" d="M12.555 9.987h-2a.5.5 0 0 1 0-1h2a.5.5 0 0 1 0 1zM11.555 12.987h-3a.5.5 0 0 1 0-1h3a.5.5 0 0 1 0 1zM11.055 15.987h-2.5a.5.5 0 0 1 0-1h2.5a.5.5 0 0 1 0 1zM13.055 6.987h-1.5a.5.5 0 0 1-.5-.5v-2a.5.5 0 0 1 .5-.5h2a.5.5 0 0 1 0 1h-1.5v1h1a.5.5 0 0 1 0 1zM23.495 6.927a.48.48 0 0 1-.119-.015l-3.939-.968a.5.5 0 0 1-.381-.485V2.487a.5.5 0 0 1 .854-.354l3.939 3.939a.5.5 0 0 1-.354.855zm-3.44-1.86l1.819.446-1.819-1.819v1.373zM24.949 14.492a.493.493 0 0 1-.12-.015l-8.74-2.147a.498.498 0 1 1 .238-.97l8.74 2.147a.498.498 0 0 1-.118.985zM26.176 17.883a.493.493 0 0 1-.12-.015l-12.625-3.102a.498.498 0 1 1 .238-.97l12.625 3.102a.498.498 0 0 1-.118.985zM25.46 20.796a.493.493 0 0 1-.12-.015L12.716 17.68a.498.498 0 1 1 .238-.97l12.625 3.102a.498.498 0 0 1-.119.984zM24.744 23.709a.493.493 0 0 1-.12-.015l-8.209-2.017a.5.5 0 1 1 .238-.97l8.209 2.017a.5.5 0 0 1-.118.985zM24.028 26.622a.493.493 0 0 1-.12-.015l-2.375-.583a.499.499 0 1 1 .238-.97l2.375.583a.499.499 0 0 1-.118.985zM29.549 12.533a.48.48 0 0 1-.119-.015l-3.885-.955a.498.498 0 0 1-.366-.604l.955-3.884a.5.5 0 0 1 .913-.14l2.93 4.839a.5.5 0 0 1-.428.759zm-3.279-1.821l2.227.548-1.68-2.774-.547 2.226zM23.723 11.102a.493.493 0 0 1-.12-.015l-5.827-1.432a.498.498 0 0 1-.366-.604l.478-1.942a.5.5 0 0 1 .604-.366l5.827 1.432a.498.498 0 0 1 .366.604.495.495 0 0 1-.604.366L18.74 7.832l-.24.972 5.341 1.313a.498.498 0 0 1-.118.985z"/><path fill="#f05549" d="M8.778 13.569h4v14h-4z" transform="rotate(-49.202 10.778 20.569)"/><path fill="#4f5266" d="M14.77 27.156a.505.505 0 0 1-.327-.121L3.845 17.888a.501.501 0 0 1-.052-.706l2.614-3.028a.5.5 0 0 1 .705-.052l10.598 9.147a.501.501 0 0 1 .052.706l-2.614 3.028a.5.5 0 0 1-.342.172l-.036.001zm-9.893-9.699l9.841 8.494 1.96-2.271-9.841-8.494-1.96 2.271z"/><path fill="#4f5266" d="M10.627 18.297a.503.503 0 0 1-.327-.121l-3.48-3.004a.5.5 0 0 1-.765-.424V2.487a.5.5 0 0 1 .5-.5h13c.133 0 .26.053.354.146l3.939 3.939a.5.5 0 0 1-.473.839L14.36 4.697l-3.248 13.219a.498.498 0 0 1-.485.381zM7.055 14.06c.02.013.039.026.057.042l3.224 2.783 3.172-12.911a.5.5 0 0 1 .604-.366l7.761 1.906-2.526-2.526H7.055V14.06zM8.984 24.987H6.555a.5.5 0 0 1-.5-.5v-4.922a.502.502 0 0 1 .827-.379l3.001 2.591a.499.499 0 0 1 .159.498l-.573 2.331a.499.499 0 0 1-.485.381zm-1.929-1h1.537l.406-1.652-1.943-1.678v3.33z"/><path fill="#4f5266" d="M4.172 18.009a.498.498 0 0 1-.461-.308L1.99 13.573a.5.5 0 0 1 .584-.677l4.335 1.1a.499.499 0 0 1 .255.812L4.55 17.836a.501.501 0 0 1-.378.173zm-.875-3.898l1.025 2.458 1.557-1.803-2.582-.655z"/><path fill="#4f5266" d="M16.077 25.643a.502.502 0 0 1-.327-.121L5.152 16.374a.501.501 0 0 1 .653-.758l10.598 9.147a.501.501 0 0 1-.326.88z"/><path fill="#8a8b99" d="M18.898 24.935l-2.614 3.028a1 1 0 0 1-1.514-1.306l2.614-3.028a1 1 0 1 1 1.514 1.306z"/><path fill="#4f5266" d="M15.525 28.81a1.49 1.49 0 0 1-.978-.364 1.498 1.498 0 0 1-.156-2.116l2.614-3.028a1.501 1.501 0 0 1 2.271 1.962l-2.614 3.027a1.494 1.494 0 0 1-1.137.519zm2.616-5.028a.5.5 0 0 0-.379.173l-2.614 3.028a.495.495 0 0 0 .052.704.497.497 0 0 0 .706-.052l2.614-3.027a.5.5 0 0 0-.379-.826zm.757 1.154h.01-.01z"/><path fill="#d2ccd2" d="M20.515 27.652l-1.307 1.514a1 1 0 0 1-1.41.104l-1.514-1.307 2.614-3.028 1.514 1.307a1 1 0 0 1 .103 1.41z"/><path fill="#4f5266" d="M18.449 30.014c-.359 0-.703-.128-.978-.364l-1.514-1.308a.501.501 0 0 1-.052-.706l2.614-3.027a.501.501 0 0 1 .705-.052l1.514 1.307a1.495 1.495 0 0 1 .155 2.116l-1.307 1.514a1.49 1.49 0 0 1-1.137.52zm-1.46-2.103l1.136.98a.496.496 0 0 0 .704-.052l1.307-1.515a.5.5 0 0 0-.051-.704l-1.136-.98-1.96 2.271zM14.62 27.401a.43.43 0 0 1-.107-.013l-5.886-1.446a.498.498 0 0 1-.366-.604l.811-3.301a.498.498 0 0 1 .812-.259l5.213 4.5a.515.515 0 0 1 .051.706.784.784 0 0 0-.05.101.54.54 0 0 1-.478.316zm-5.269-2.31l3.971.976-3.474-2.999-.497 2.023z"/><path fill="#4f5266" d="M25.255 30.013a.493.493 0 0 1-.12-.015L19.9 28.712a.5.5 0 0 1-.259-.812l.496-.574a.495.495 0 0 0-.052-.704l-1.514-1.307a.5.5 0 0 1-.052-.706.5.5 0 0 0-.757-.653.503.503 0 0 1-.705.052l-6.756-5.831a.499.499 0 0 1-.159-.498l3.367-13.704a.5.5 0 0 1 .604-.366l12.625 3.102c.129.031.24.113.309.227l2.93 4.839a.5.5 0 0 1 .058.378L25.74 29.632a.501.501 0 0 1-.485.381zm-4.325-2.077l3.958.973 4.126-16.793-2.715-4.484L14.36 4.697l-3.174 12.921 6.211 5.36a1.504 1.504 0 0 1 1.724.167c.494.427.642 1.106.417 1.683l1.2 1.035c.303.262.486.626.516 1.025.028.382-.087.751-.324 1.048z"/></svg>