<svg xmlns="http://www.w3.org/2000/svg" xmlns:xlink="http://www.w3.org/1999/xlink" data-name="Layer 1" viewBox="0 0 512 512"><defs><linearGradient id="a" x1="256.205" x2="256.205" y1="8" y2="512.892" gradientUnits="userSpaceOnUse"><stop offset="0" stop-color="#00efd1"/><stop offset="1" stop-color="#00acea"/></linearGradient><linearGradient id="b" x1="370.18" x2="370.18" y1="8" y2="512.892" xlink:href="#a"/></defs><g data-name="&lt;Group&gt;"><path fill="url(#a)" d="M427,230.16V96.042A40.93,40.93,0,0,0,385.752,55H352V28.277A10.113,10.113,0,0,0,342.151,18h-49.9A10.453,10.453,0,0,0,282,28.277V55H164V28.277A10.165,10.165,0,0,0,154.089,18h-49.9A10.4,10.4,0,0,0,94,28.277V55H61.109A40.813,40.813,0,0,0,20,96.042V400.2C20,423.092,38.216,442,61.109,442H238.491A142.508,142.508,0,0,0,348.98,493.864c79.087,0,143.429-64.413,143.429-143.5a143.584,143.584,0,0,0-19.489-72.02A142.026,142.026,0,0,0,427,230.16ZM302,38h30V87H302ZM114,38h30V87H114ZM61.109,75H94V97.093A10.081,10.081,0,0,0,104.185,107h49.9A9.845,9.845,0,0,0,164,97.093V75H282V97.093A10.135,10.135,0,0,0,292.247,107h49.9A9.793,9.793,0,0,0,352,97.093V75h33.752A20.911,20.911,0,0,1,407,96.042V162H40V96.042A20.794,20.794,0,0,1,61.109,75ZM40,400.2V182H407v37.244a141.707,141.707,0,0,0-58.155-12.38c-79.087,0-143.362,64.484-143.362,143.571A143.57,143.57,0,0,0,224.557,422H61.109C49.244,422,40,412.063,40,400.2Zm308.98,73.525a122.508,122.508,0,0,1-97.915-48.3l-.016-.02a121.921,121.921,0,0,1-25.5-75.108A123.429,123.429,0,1,1,348.98,473.723Z" data-name="&lt;Compound Path&gt;"/><path fill="url(#b)" d="M398.36,351H352V287.256a10,10,0,0,0-20,0V360.8A10.3,10.3,0,0,0,342.151,371H398.36a10,10,0,0,0,0-20Z" data-name="&lt;Path&gt;"/></g></svg>