<svg xmlns="http://www.w3.org/2000/svg" xmlns:xlink="http://www.w3.org/1999/xlink" enable-background="new 0 0 600 400" viewBox="0 0 600 400"><path fill="#F6F2F1" d="M95.906,370.238c0,0-90.919-56.011-57.267-116.068
		c33.652-60.057,64.976,4.181,148.705-45.155c83.729-49.336,58.482-188.888,184.268-114.987s25.015,116.399,65.609,150.369
		c40.594,33.969,67.842,13.819,105.804,49.855c37.962,36.035,22.831,75.22,22.831,75.22L95.906,370.238z"/><rect width="525.827" height="2.081" x="37.087" y="368.292" fill="#0A0909"/><rect width="137.566" height="20.909" x="84.446" y="193.761" fill="#464D7B" fill-rule="evenodd" clip-rule="evenodd"/><path fill="#0A0909" d="M217.455,194.136H89.123c-0.207,0-0.375-0.168-0.375-0.375V59.215c0-0.207,0.168-0.375,0.375-0.375
					h128.332c0.207,0,0.375,0.168,0.375,0.375v134.546C217.83,193.968,217.662,194.136,217.455,194.136z M89.498,193.386H217.08
					V59.59H89.498V193.386z"/><path fill="#0A0909" d="M153.228,194.136c-0.207,0-0.375-0.168-0.375-0.375V59.215c0-0.207,0.168-0.375,0.375-0.375
					s0.375,0.168,0.375,0.375v134.546C153.603,193.968,153.435,194.136,153.228,194.136z"/><path fill="#0A0909" d="M217.455,126.864H89.123c-0.207,0-0.375-0.168-0.375-0.375s0.168-0.375,0.375-0.375h128.332
					c0.207,0,0.375,0.168,0.375,0.375S217.662,126.864,217.455,126.864z"/><g><rect width="137.566" height="20.909" x="364.421" y="194.382" fill="#464D7B" fill-rule="evenodd" clip-rule="evenodd"/><path fill="#0A0909" d="M497.43,194.757H369.098c-0.207,0-0.375-0.168-0.375-0.375V59.836c0-0.207,0.168-0.375,0.375-0.375
					H497.43c0.207,0,0.375,0.168,0.375,0.375v134.546C497.805,194.589,497.637,194.757,497.43,194.757z M369.473,194.007h127.582
					V60.211H369.473V194.007z"/><path fill="#0A0909" d="M433.204,194.757c-0.207,0-0.375-0.168-0.375-0.375V59.836c0-0.207,0.168-0.375,0.375-0.375
					s0.375,0.168,0.375,0.375v134.546C433.579,194.589,433.411,194.757,433.204,194.757z"/><path fill="#0A0909" d="M497.43,127.484H369.098c-0.207,0-0.375-0.168-0.375-0.375s0.168-0.375,0.375-0.375H497.43
					c0.207,0,0.375,0.168,0.375,0.375S497.637,127.484,497.43,127.484z"/></g><g><path fill="#464D7B" d="M322.517,116.637h-58.741v-1.083c0-16.221,13.15-29.371,29.371-29.371h0
			c16.221,0,29.371,13.15,29.371,29.371V116.637z"/><path fill="#0A0909" d="M293.146 128.076c-6.091 0-11.046-4.955-11.046-11.046v-.394c0-.207.169-.376.376-.376h21.339c.207 0 .376.169.376.376v.394C304.191 123.121 299.236 128.076 293.146 128.076zM282.852 117.012v.018c0 5.676 4.618 10.294 10.294 10.294s10.293-4.618 10.293-10.294v-.018H282.852zM293.146 86.559c-.207 0-.376-.169-.376-.376V30.002c0-.207.169-.376.376-.376s.376.169.376.376v56.181C293.522 86.39 293.353 86.559 293.146 86.559z"/></g><g><path fill="#FC7F61" d="M140.334,226.943c1.109,0.478,2.136,1.213,1.96-2.778c-0.176-3.991-0.892-11.056-3.082-17.203
				c-2.191-6.147-4.723-7.84-4.927-9.217c-0.204-1.377,0.087-3.008,0.087-3.008l-0.397-0.474c0,0,0.127-0.485,0.368-2.368
				c0.241-1.883-0.101-3.728-0.101-3.728s-0.554-0.558-1.743-1.526c-1.189-0.968-1.065-2.002-0.88-2.161
				c0.184-0.159,1.132,0.85,2.672,1.599s3.476,1.934,4.34,2.07c0.864,0.136,1.178,0.261,1.312,1.423
				c0.134,1.162,0.338,5.566,1.366,7.033c1.028,1.467,9.934,14.622,13.2,22.745c3.266,8.123,4.281,18.67,0.673,22.651
				c-3.608,3.981-13.511,3.297-17.35,0.91C137.832,242.911,138.589,232.878,140.334,226.943z"/><path fill="#FFF" d="M149.105,244.715c-0.119,0-0.192-0.005-0.21-0.006c-0.126-0.008-0.221-0.115-0.213-0.24
					c0.007-0.126,0.121-0.236,0.24-0.213c0.028-0.001,2.974,0.154,5.345-2.027c1.938-1.784,2.963-4.592,3.047-8.347
					c0.246-10.917-6.339-21.284-6.405-21.388c-0.067-0.105-0.037-0.246,0.068-0.314c0.104-0.068,0.245-0.037,0.314,0.068
					c0.067,0.104,6.726,10.585,6.478,21.644c-0.088,3.887-1.164,6.807-3.2,8.677C152.403,244.559,149.852,244.715,149.105,244.715z"/><path fill="#FC7F61" d="M142.295,225.671c0,0-0.257,1.078-1.131,0.879c-0.874-0.199-4.993-7.076-4.993-7.076l-5.892,6.6
			l-2.979,8.422l10.534,8.416l4.96-16.162L142.295,225.671z"/><path fill="#6797F3" d="M135.686,157.688c0-11.801,14.623-21.367,32.662-21.367c18.039,0,32.662,9.567,32.662,21.367
			c0,11.801-14.623,21.367-32.662,21.367c-5.326,0-10.339-0.852-14.781-2.331l-10.162,8.833l4.982-10.983
			C140.672,170.666,135.686,164.565,135.686,157.688z"/><rect width="3.639" height="18.168" x="165.733" y="206.507" fill="#0A0909" fill-rule="evenodd" clip-rule="evenodd" transform="rotate(135.089 167.555 215.589)"/><polygon fill-rule="evenodd" points="175.788 223.852 175.254 220.739 172.677 223.308" clip-rule="evenodd"/><polygon fill="#FC2222" fill-rule="evenodd" points="175.851 224.609 176.782 224.12 175.637 222.972 174.926 223.681" clip-rule="evenodd"/><polygon fill="#FC2222" fill-rule="evenodd" points="166.578 212.036 162.848 213.449 168.711 219.33 172.539 218.016" clip-rule="evenodd"/><path fill="#FFF" d="M161.924 146.901c2.509-2.52 6.416-4.437 10.054-3.754 1.957.367 3.963 1.905 3.866 4.087-.087 1.944-1.838 3.341-3.256 4.422-1.628 1.242-3.283 2.449-4.921 3.678-1.235.926-2.469 1.867-3.324 3.176-1.742 2.669-1.653 6.065-1.316 9.105.059.535.906.541.846 0-.225-2.035-.356-4.143.135-6.152.598-2.446 2.143-3.935 4.086-5.4 1.813-1.367 3.674-2.679 5.456-4.088 1.249-.988 2.52-2.16 2.975-3.74.963-3.344-2.26-5.8-5.262-6.028-3.68-.28-7.391 1.539-9.937 4.095C160.941 146.689 161.539 147.288 161.924 146.901L161.924 146.901zM163.714 171.462c1.089 0 1.09-1.692 0-1.692C162.626 169.77 162.624 171.462 163.714 171.462L163.714 171.462z"/><path fill="#0A0909" d="M132.536,184.914c2.885,2.872,4.998,7.819,3.721,12.717c-1.277,4.898-5.31,6.818-5.31,6.818
			s3.143-2.66,4.061-7.019c0,0-2.307,5.084-8.628,5.613c-6.321,0.529-16.468,1.1-16.468,1.1s-4.495-1.438-9.208,3.414
			c-4.712,4.852-10.307,20.038-10.307,20.038s-6.259,2.558-12.978-0.886c-6.718-3.444-6.896-12.832-4.831-18.549
			c2.064-5.717,8.64-9.193,8.64-9.193s-5.76,2.232-8.907,7.537c0,0,1.584-4.895,8.674-9.063c7.09-4.167,22.03-0.038,22.03-0.038
			s2.142-14.559,12.05-17.21C122.597,178.18,127.755,180.155,132.536,184.914z"/><path fill="#FEB91E" d="M107.466 203.072c-4.285-.143-11.571 2.948-18.245 13.014-6.674 10.066-11.645 22.536-14.621 32.237-2.976 9.702-3.467 14.78-3.467 14.78s13.059 1.855 27.237 3.367c14.178 1.512 25.248 2.686 25.248 2.686s-.648-12.234 1.514-19.628l4.404-18.32c0 0 5.949-11.154 7.393-12.919 0 0-4.798-3.396-8.095-5.942-3.297-2.546-6.778-6.796-8.184-8.053-1.406-1.257-11.621-1.43-11.621-1.43L107.466 203.072zM148.424 343.149l-1.592 20.148 31.516 2.679c0 0 .697-4.96-6.71-9.165-7.406-4.205-9.562-10.069-9.285-12.745L148.424 343.149z"/><path fill="#FC7F61" d="M124.844,226.969l8.596,7.761c0,0,8.568-4.498,14.258-7.176c5.69-2.679,12.692-5.305,13.858-7.791
			c1.166-2.485,1.909-6.214,2.334-6.28c0.425-0.066,1.823-0.395,3.449-1.337c1.627-0.942,2.369-1.951,2.582-2.337
			c0.212-0.385,0.96,0.09,0.638,0.908c0,0,0.176-0.007,0.451-0.067c0.275-0.06,0.266,0.393,0.266,0.393s0.715-0.404,0.823-0.207
			c0.108,0.197,0.166,1.076-0.716,1.739c-0.882,0.662-2.268,1.972-2.268,1.972s1.52,0.271,2.697-0.579
			c1.177-0.849,1.046-0.97,1.222-0.977c0.176-0.007,0.581,0.734-0.659,1.913c-1.24,1.179-2.569,1.329-3.046,2.026
			c-0.478,0.698-0.97,1.32-1.152,3.555c-0.181,2.235,0.025,4.719-1.748,5.805c-1.772,1.085-3.095,1.059-6.387,3.9
			c-3.293,2.841-11.948,10.741-16.05,14.166c-4.102,3.425-11.227,8.121-13.512,7.602c-2.285-0.519-11.567-5.057-16.556-11.971
			C113.925,239.987,117.579,234.011,124.844,226.969z"/><path fill="#6696F8" d="M71.134,263.103c-1.74,10.059,3.783,34.02,8.509,33.844c4.726-0.176,42.673-0.581,46.2,2.208
			c3.528,2.789,0.165,26.074,0.165,26.074l21.117,1.933l0.934-4.667l18.097,1.945c0,0,2.901-22.16-0.02-33.027
			c-2.922-10.867-9.674-18.722-42.516-22.258C90.778,265.619,71.134,263.103,71.134,263.103z"/><path fill="#FC7F61" d="M145.912 327.051c-.749 5.571-4.824 21.909-4.824 21.909l-14.735-2.271c0 0 1.01-17.574 1.55-21.287L145.912 327.051zM164.723 324.286c-.991 6.059-2.369 19.78-2.369 19.78l-13.93-.917-.366-20.654L164.723 324.286z"/><path fill="#FEB91E" d="M141.088,348.96c-0.534,3.922,0.765,7.725,6.017,10.173c5.252,2.448,6.61,4.436,7.487,7.727l-31.181-2.012
			l2.941-18.159L141.088,348.96z"/><path fill="#FFF" d="M147.977 359.554c-1.26 1.306-3.888 1.051-6.603-1.567-2.715-2.618-3.75-8.973-3.063-10.711.687-1.737 3.09-.348 2.883 1.258-.207 1.606-.309 3.886 1.155 6.396C143.73 357.297 145.673 358.507 147.977 359.554zM172.704 357.456c-2.564 1.022-4.749.474-8.501-2.924-3.751-3.397-5.379-8.472-5.271-10.691s3.63-1.806 3.63-1.806-.165.519-.209 2.031c-.045 1.512 1.274 5.827 4.09 8.449C169.261 355.137 171.021 356.232 172.704 357.456zM109.032 202.862l-1.565.209c0 0 .69 3.675 3.145 6.718 2.454 3.043 4.799 4.202 8.28 4.865l-.214-2.22c0 0-3.161-.713-5.912-3.632C110.013 205.884 109.032 202.862 109.032 202.862z"/><path fill="#0A0909" d="M113.925 239.987c.328.447.625.826.886 1.149L113.925 239.987c0 0 3.401-6.017 10.919-13.018-5.264 6.212-7.955 10.138-10.007 14.199.627.77 1.027 1.179 1.027 1.179s-2.255 2.373-3.161 2.369C111.797 244.711 112.422 242.233 113.925 239.987zM136.17 219.474c-1.813 3.365-5.423 12.825-5.423 12.825l-1.209-1.091C129.538 231.207 132.781 223.38 136.17 219.474z"/><polygon fill="#0A0909" points="145.912 327.051 127.649 327.73 127.903 325.402"/><polygon fill="#0A0909" points="164.723 324.286 148.101 324.904 148.059 322.495"/><path fill="#0A0909" d="M133.666 234.957c-.055 0-.109-.019-.153-.057l-4.796-4.118c-.098-.084-.109-.232-.024-.331.084-.098.232-.109.331-.024l4.676 4.016 14.326-7.291c.115-.059.257-.014.315.103.06.115.013.257-.103.315l-14.466 7.362C133.739 234.949 133.702 234.957 133.666 234.957zM148.399 321.069c-.007 0-.014 0-.021-.001-.13-.011-.225-.125-.213-.254.235-2.635.531-5.438.817-8.149 1.204-11.428 2.45-23.243.207-29.512-2.74-7.658-10.808-10.648-10.889-10.678-.122-.044-.185-.179-.141-.301s.18-.187.301-.141c.083.03 8.357 3.097 11.17 10.961 2.28 6.369 1.028 18.239-.182 29.719-.286 2.709-.581 5.511-.817 8.142C148.622 320.977 148.519 321.069 148.399 321.069zM148.058 322.729c-.007 0-.015 0-.022-.001l-12.505-1.182c-.129-.012-.224-.126-.211-.256.012-.128.104-.24.256-.211l12.505 1.182c.129.012.224.126.211.256C148.281 322.638 148.178 322.729 148.058 322.729zM133.396 321.06c-.012 0-.023 0-.035-.002l-6.724-1.018c-.128-.02-.217-.14-.197-.268.019-.128.14-.221.268-.197l6.724 1.018c.128.02.217.14.197.268C133.611 320.977 133.51 321.06 133.396 321.06z"/><path fill="#0A0909" d="M166.797 318.549c-.011 0-.022 0-.034-.002l-17.891-2.663c-.129-.02-.217-.139-.198-.267.02-.128.125-.226.267-.198l17.891 2.663c.129.02.217.139.198.267C167.011 318.466 166.911 318.549 166.797 318.549zM138.607 355.479c-.121 0-.224-.092-.234-.215-.011-.129.086-.242.215-.254l3.742-.314c.155.006.242.086.254.215.011.129-.086.242-.215.254l-3.742.314C138.62 355.479 138.613 355.479 138.607 355.479zM141.076 350.554c-.005 0-.01 0-.016 0l-3.924-.257c-.129-.009-.228-.12-.219-.25s.092-.218.25-.219l3.924.257c.129.009.228.12.219.25C141.302 350.459 141.199 350.554 141.076 350.554z"/><path fill="#0A0909" d="M142.334 352.69c-.962.001-2.337-1.813-2.611-2.188-.041-.057-.054-.126-.04-.188-.023-.077-.007-.163.051-.228.104-.116 2.604-2.843 4.373-1.84.399.227.448.479.419.65-.103.607-1.576 1.093-2.85 1.401.494.13.994.351 1.262.728.211.298.253.663.121 1.056-.147.441-.416.57-.615.602C142.407 352.688 142.371 352.69 142.334 352.69zM140.379 350.585c.649.808 1.551 1.676 1.992 1.633.038-.006.154-.024.242-.286.085-.253.065-.46-.059-.635C142.174 350.759 140.924 350.605 140.379 350.585zM143.233 348.492c-1.05 0-2.286 1.062-2.848 1.602 1.919-.365 3.623-.953 3.677-1.275.002-.009-.025-.071-.188-.164C143.674 348.54 143.458 348.492 143.233 348.492zM163.453 356.235c-.1 0-.191-.063-.224-.163-.039-.123.028-.256.152-.295l5.102-1.631c.121-.043.255.029.295.152.039.123-.028.256-.152.295l-5.102 1.631C163.501 356.232 163.476 356.235 163.453 356.235zM161.439 353.547c-.118 0-.22-.088-.233-.208-.015-.128.078-.245.207-.26l5.219-.601c.13-.014.245.078.26.207.015.128-.078.245-.207.26l-5.219.601C161.457 353.547 161.448 353.547 161.439 353.547zM164.676 351.19c-.226 0-.447-.051-.663-.152-1.401-.66-2.1-3.337-2.264-4.049l-4.73-.463c-.13-.013-.224-.127-.211-.256.012-.13.135-.23.256-.211l4.802.47c.657-.561 5.004-4.08 7.667-1.847.496.416.678.812.539 1.176-.422 1.111-4.169 1.26-6.136 1.26-.033 0-.065 0-.098 0 .979.609 2.485 1.713 2.489 2.734.002.448-.266.819-.794 1.104C165.243 351.112 164.956 351.19 164.676 351.19zM162.246 347.037c.205.827.851 3.05 1.968 3.576.348.163.707.14 1.098-.071.369-.198.548-.423.547-.688-.004-.958-2.12-2.293-2.987-2.756L162.246 347.037zM162.965 346.636c2.573.064 6.375-.173 6.668-.945.079-.206-.218-.495-.401-.649-2.057-1.722-5.488.618-6.696 1.553l.424.041C162.961 346.635 162.963 346.636 162.965 346.636zM166.383 213.609c-.048 0-.092-.029-.11-.076-.022-.061.009-.128.069-.151.928-.348 2.68-1.615 3.898-2.595.05-.042.124-.033.165.019.04.05.032.124-.019.165-1.231.99-3.009 2.273-3.963 2.632C166.41 213.607 166.396 213.609 166.383 213.609zM166.752 214.048c-.05 0-.096-.031-.111-.08-.021-.062.013-.128.074-.148 1.261-.415 4.169-2.586 4.198-2.607.052-.039.126-.03.164.023.039.052.028.125-.023.164-.12.091-2.969 2.216-4.265 2.643C166.776 214.046 166.763 214.048 166.752 214.048zM167.331 214.731c-.063 0-.115-.05-.117-.113-.003-.064.048-.119.113-.121l1.608-.06c.001 0 .003 0 .004 0 .063 0 .115.05.117.113.003.064-.048.119-.113.121l-1.608.06C167.334 214.731 167.332 214.731 167.331 214.731zM163.776 225.225c-.143 0-.295-.02-.46-.051-.063-.012-.105-.073-.093-.138.012-.063.063-.108.138-.093.638.122 1.009.046 1.273-.706.021-.061.086-.096.149-.071.061.021.093.088.071.149C164.612 225.009 164.255 225.225 163.776 225.225zM124.822 226.483c-.032 0-.064-.013-.088-.039-.229-.26-5.629-6.393-5.901-10.194-.005-.065.044-.121.108-.126.065-.004.121.044.126.108.267 3.725 5.787 9.993 5.843 10.056.043.049.038.123-.01.166C124.878 226.473 124.849 226.483 124.822 226.483zM111.708 244.115c-.026 0-.053-.009-.075-.026-6.791-5.632-15.302-17.757-15.388-17.879-.037-.054-.023-.126.029-.164.052-.036.125-.023.164.029.085.122 8.578 12.222 15.345 17.832.05.042.057.116.016.166C111.775 244.1 111.741 244.115 111.708 244.115z"/><path fill="#0A0909" d="M98.247,230.599c-1.17,0-2.869-0.391-3.653-2.468c-0.023-0.061,0.007-0.128,0.068-0.15
				c0.062-0.025,0.127,0.007,0.15,0.068c1.178,3.115,4.557,2.192,4.59,2.181c0.062-0.02,0.128,0.018,0.146,0.081
				c0.018,0.063-0.019,0.127-0.081,0.146C99.453,230.46,98.944,230.599,98.247,230.599z"/><rect width="134.975" height="9.75" x="131.811" y="248.02" fill="#FEB91E" transform="rotate(180 199.293 252.899)"/><defs><rect id="a" width="134.975" height="9.75" x="131.811" y="248.02" transform="rotate(180 199.293 252.899)"/></defs><clipPath id="b"><use overflow="visible" xlink:href="#a"/></clipPath><g clip-path="url(#b)"><path fill="#FE891E" d="M256.515 253.126c-4.28 0-5.924-5.096-5.94-5.148-.059-.186.045-.383.23-.441.185-.059.384.045.441.23.017.049 1.582 4.9 5.579 4.645 4.076-.264 6.614-4.703 6.639-4.748.097-.17.313-.231.479-.135.17.095.23.309.136.479-.11.196-2.747 4.819-7.209 5.107C256.751 253.123 256.633 253.126 256.515 253.126zM261.822 256.676c-.059 0-.118-.015-.173-.046-.169-.095-.229-.31-.134-.479 1.868-3.321 5.086-3.8 5.223-3.818.186-.036.37.107.396.3s-.107.37-.3.397c-.03.005-3.014.46-4.706 3.467C262.064 256.612 261.945 256.676 261.822 256.676zM253.661 257.967c-.145 0-.279-.09-.331-.233-.013-.034-1.268-3.425-4.508-4.486-3.521-1.153-6.299-4.983-6.415-5.146-.113-.158-.077-.378.081-.491.156-.114.378-.077.491.081.027.038 2.762 3.806 6.062 4.887 3.574 1.171 4.897 4.766 4.952 4.918.065.184-.03.385-.213.45C253.741 257.96 253.7 257.967 253.661 257.967zM230.875 258.033c-.104 0-.207-.046-.276-.134-.12-.153-.095-.374.058-.495.169-.133 4.171-3.266 8.587-3.926 4.539-.67 7.741 3.764 7.874 3.952.112.159.075.379-.083.491-.161.112-.38.075-.491-.083-.03-.043-3.091-4.292-7.196-3.663-4.227.631-8.214 3.75-8.253 3.781C231.028 258.007 230.952 258.033 230.875 258.033zM233.07 251.606c-.267 0-.533-.039-.797-.125-2.601-.851-3.826-3.286-3.877-3.389-.086-.175-.015-.386.159-.472.173-.084.385-.015.472.159.012.022 1.152 2.274 3.465 3.031 2.22.726 4.978-3.069 5.006-3.107.114-.158.334-.194.492-.08.157.114.193.334.08.492C237.957 248.272 235.529 251.606 233.07 251.606zM221.162 258.061c-.128 0-.252-.07-.314-.193-1.116-2.199-.984-4.194.355-5.337 1.328-1.137 3.458-1.058 5.176.188 2.973 2.157 5.993.282 6.12.201.164-.104.381-.057.486.107.104.163.057.381-.106.485-.034.023-3.542 2.221-6.914-.224-1.452-1.055-3.225-1.146-4.305-.224-1.075.917-1.144 2.593-.184 4.483.088.173.019.385-.155.474C221.27 258.048 221.216 258.061 221.162 258.061zM215.627 252.31c-3.001 0-6.68-3.896-6.849-4.077-.133-.142-.126-.364.017-.497.141-.133.364-.126.497.017.042.045 4.273 4.533 6.957 3.772 2.771-.764 4.842-3.737 4.862-3.768.111-.161.332-.2.489-.091.16.109.201.329.091.489-.09.131-2.233 3.215-5.255 4.049C216.174 252.277 215.903 252.31 215.627 252.31zM217.106 258.071c-.121 0-.238-.063-.304-.174-.078-.134-1.934-3.211-6.091-3.211-.074 0-.147 0-.224.003-.045.001-.091.001-.137.001-4.672.001-9.346-6.198-9.544-6.464-.116-.156-.084-.377.071-.493.156-.115.376-.085.493.071.047.063 4.661 6.182 8.979 6.182.04 0 .079 0 .119-.002 4.716-.125 6.854 3.408 6.94 3.559.098.168.041.383-.127.48C217.228 258.055 217.167 258.071 217.106 258.071zM206.385 258.103c-.118 0-.234-.061-.301-.17-.039-.063-3.858-6.211-8.186-3.734-.167.096-.383.038-.48-.131-.097-.169-.038-.384.131-.48 4.926-2.816 9.096 3.912 9.137 3.98.102.166.048.383-.118.483C206.511 258.086 206.448 258.103 206.385 258.103zM183.967 258.167c-.027 0-.056-.004-.084-.011-.188-.046-.305-.236-.258-.426.494-2.015 2.864-5.15 7.369-5.529 3.894-.329 4.163-4.035 4.173-4.192.012-.193.149-.332.373-.33.194.012.342.179.33.373-.003.045-.323 4.472-4.817 4.851-4.105.347-6.315 3.248-6.744 4.996C184.27 258.059 184.127 258.167 183.967 258.167zM178.538 254.066c-4.715 0-9.745-5.46-9.983-5.721-.131-.145-.12-.367.023-.498s.365-.12.498.023c.063.068 6.29 6.833 10.987 5.249 4.736-1.601 5.769-5.121 5.778-5.156.052-.188.249-.3.434-.244.188.052.297.246.244.434-.044.159-1.146 3.916-6.231 5.635C179.716 253.98 179.13 254.066 178.538 254.066zM161.128 258.233c-.085 0-.17-.03-.237-.092-.144-.131-.154-.354-.023-.498.163-.179 4.033-4.38 8.22-4.473 4.267-.087 6.263 4.34 6.345 4.528.078.179-.003.386-.181.464-.175.079-.386-.002-.464-.181-.019-.042-1.886-4.164-5.685-4.106-3.888.085-7.677 4.2-7.714 4.242C161.319 258.194 161.223 258.233 161.128 258.233zM153.946 256.16c-.054 0-.107-.013-.159-.039-.172-.088-.241-.297-.154-.47.045-.091 1.169-2.232 5.964-2.931 4.335-.63 4.618-4.581 4.62-4.621.012-.194.183-.34.372-.331.194.012.343.178.331.372-.003.046-.325 4.565-5.222 5.277-4.387.639-5.428 2.533-5.438 2.552C154.197 256.09 154.074 256.16 153.946 256.16zM150.985 252.486c-2.95 0-5.934-3.918-6.069-4.099-.117-.155-.086-.376.069-.493.155-.115.375-.086.493.069.034.045 3.365 4.441 6.102 3.745 2.824-.715 5.052-3.743 5.074-3.773.115-.157.336-.19.492-.078.157.114.192.335.078.492-.097.133-2.397 3.265-5.473 4.043C151.498 252.456 151.241 252.486 150.985 252.486zM149.494 258.265c-.193 0-.351-.157-.353-.351 0-.112-.054-2.755-3.392-3.318-3.833-.648-6.255-6.034-6.356-6.263-.078-.178.002-.386.18-.465s.386.001.465.18c.023.053 2.37 5.268 5.829 5.853 3.938.665 3.979 3.979 3.979 4.014C149.845 258.108 149.688 258.265 149.494 258.265L149.494 258.265zM139.609 258.293c-.175 0-.327-.13-.35-.308-.032-.257-.879-6.322-7.533-7.776-.19-.041-.311-.229-.269-.419.041-.189.226-.316.419-.269 7.15 1.563 8.073 8.309 8.082 8.376.024.193-.112.369-.306.394C139.638 258.293 139.624 258.293 139.609 258.293zM133.488 255.524c-1.316 0-1.889-.549-1.922-.581-.138-.138-.138-.36-.001-.499.137-.134.357-.138.494-.004.023.021.932.807 3.243.057.186-.058.384.041.443.227.06.185-.041.384-.227.443C134.706 255.43 134.033 255.524 133.488 255.524z"/></g><path fill="#0A0909" d="M131.825,258.199c-0.13,0-0.234-0.104-0.234-0.233c-0.001-0.13,0.104-0.235,0.233-0.235l134.975-0.387
					c0.001,0,0.001,0,0.001,0c0.13,0,0.234,0.104,0.234,0.233c0.001,0.13-0.104,0.235-0.233,0.235L131.825,258.199
					C131.825,258.199,131.825,258.199,131.825,258.199z"/><polygon fill="#0A0909" points="152.682 257.964 164.251 257.964 124.887 369.396 122.017 369.396"/><polygon fill="#0A0909" points="241.313 257.577 229.744 257.577 269.108 369.009 271.978 369.009"/><path fill="#0A0909" d="M126.552,369.374c-0.421,0-0.771-0.333-0.789-0.759l-2.592-62.745c-0.019-0.436,0.321-0.805,0.758-0.822
				c0.416-0.032,0.805,0.32,0.822,0.758l2.592,62.745c0.019,0.436-0.321,0.805-0.758,0.822
				C126.575,369.374,126.564,369.374,126.552,369.374z"/><path fill="#464D7B" d="M69.607 305.839h56.982c1.337 0 2.496-.926 2.792-2.23l1.077-4.75c.406-1.791-.955-3.496-2.792-3.496H70.684c-1.337 0-2.496.926-2.792 2.229l-1.077 4.75C66.409 304.134 67.77 305.839 69.607 305.839zM77.841 269.726h49.281c1.156 0 2.159-.741 2.414-1.784l.932-3.8c.351-1.433-.826-2.797-2.414-2.797H78.772c-1.156 0-2.159.74-2.414 1.784l-.932 3.8C75.075 268.362 76.252 269.726 77.841 269.726zM61.063 265.169l-5.018-38.448c-.118-.902-.954-1.588-2.014-1.653l-3.863-.235c-1.457-.089-2.689 1.006-2.527 2.246l5.017 38.448c.118.902.954 1.588 2.014 1.653l3.863.235C59.993 267.503 61.225 266.408 61.063 265.169z"/><path fill="#0A0909" d="M67.832 369.374c-.019 0-.036-.001-.055-.002-.436-.029-.765-.406-.735-.843l4.239-62.745c.029-.437.409-.761.843-.735.436.029.765.406.735.843l-4.239 62.745C68.591 369.054 68.244 369.374 67.832 369.374zM74.974 296.155c-.055 0-.109-.006-.164-.018-.428-.09-.701-.51-.61-.937l5.412-25.638c.09-.428.52-.699.937-.61.428.09.701.51.61.937l-5.412 25.638C75.669 295.899 75.34 296.155 74.974 296.155zM122.018 296.155c-.033 0-.066-.002-.101-.007-.433-.055-.74-.45-.685-.884l3.24-25.638c.054-.433.443-.741.884-.685.433.055.74.45.685.884l-3.24 25.638C122.752 295.863 122.411 296.155 122.018 296.155zM69.607 306.629c-9.525 0-17.062-37.895-17.89-42.216l-5.486-40.735c-.058-.433.246-.831.679-.89.429-.062.831.245.89.679l5.479 40.692c2.175 11.342 9.363 40.888 16.329 40.888.437 0 .791.354.791.791S70.044 306.629 69.607 306.629z"/><path fill="#FC7F61" d="M111.498,194.265c-0.208-2.812,2.315-5.01,4.639-3.556c0.001,0.001,0.003,0.002,0.004,0.003
			c1.418-3.425,5.11-5.467,8.869-4.676c4.246,0.894,6.963,5.06,6.069,9.305c-0.138,0.656-0.362,1.271-0.645,1.846l0.006,0.001
			c-0.026,0.051-0.056,0.104-0.083,0.155c-0.054,0.103-0.107,0.207-0.164,0.307c-2.154,3.989-6.164,8.781-8.692,8.131
			c-0.541-0.139-1.063-0.386-1.559-0.704l0,0.003c-1.926,0.89-1.264,7.353-1.264,7.353s-8.124-1.973-9.645-9.572
			c0,0,4.711-2.896,5.046-4.486C114.078,198.376,111.706,197.077,111.498,194.265z"/><path fill="#0A0909" d="M129.051 191.829c0 0-2.236 1.662-6.827 1.844-4.59.182-8.239-2.554-8.239-2.554s3.22 1.457 6.015 1.43c0 0-4.129-1.038-5.841-2.257-1.712-1.219 3.116-5.452 5.286-6.021 2.17-.569 8.72.072 11.479 1.965 2.759 1.893.742 9.137.464 10.268-.279 1.13-1.196 1.148-1.196 1.148S128.451 194.286 129.051 191.829zM119.941 205.081c-1.997-1.401-2.934-3.771-2.934-3.771s.316 3.832 1.747 6.096C118.755 207.406 118.762 206.182 119.941 205.081z"/><circle cx="123.513" cy="197.279" r=".457" fill="#0A0909" transform="rotate(-78.113 123.509 197.27)"/><circle cx="127.347" cy="200.408" r=".457" fill="#0A0909" transform="rotate(-78.118 127.347 200.404)"/><g><path fill="#0A0909" d="M122.672,202.933c-0.026,0-0.054-0.004-0.08-0.013c-0.057-0.018-1.392-0.459-1.515-2.053
				c-0.011-0.146,0.098-0.272,0.243-0.284c0.135,0.009,0.273,0.098,0.284,0.243c0.096,1.242,1.137,1.587,1.147,1.59
				c0.139,0.044,0.216,0.192,0.172,0.332C122.887,202.861,122.784,202.933,122.672,202.933z"/></g><rect width="51.851" height="2.081" x="166.751" y="245.884" fill="#F7EBD2" fill-rule="evenodd" clip-rule="evenodd"/><g><path fill="#090909" d="M166.752,247.657c-0.087,0-0.157-0.069-0.158-0.156c-0.001-0.088,0.069-0.159,0.156-0.16l51.851-0.574
				c0.001,0,0.001,0,0.002,0c0.087,0,0.157,0.069,0.158,0.156c0.001,0.088-0.069,0.159-0.156,0.16l-51.851,0.574
				C166.753,247.657,166.753,247.657,166.752,247.657z"/></g><g><path fill="#090909" d="M166.752,246.581c-0.087,0-0.157-0.069-0.158-0.156c-0.001-0.088,0.069-0.159,0.156-0.16l51.851-0.538
				c0.001,0,0.001,0,0.002,0c0.087,0,0.157,0.069,0.158,0.156c0.001,0.088-0.069,0.159-0.156,0.16l-51.851,0.538
				C166.753,246.581,166.753,246.581,166.752,246.581z"/></g><g><path fill="#1036BF" d="M47.242,369.618l63.122-0.104c2.285-0.004,4.135-1.859,4.132-4.145l-0.076-46.17l-71.399,0.117
				l0.076,46.17C43.101,367.772,44.956,369.622,47.242,369.618z"/><rect width="73.88" height="35.347" x="41.809" y="319.258" fill="#FEB91E" transform="rotate(180 78.757 336.93)"/><rect width="12.665" height="4.666" x="93.369" y="352.108" fill="#0A0909" transform="rotate(180 99.693 354.444)"/><rect width="12.665" height="4.666" x="52.189" y="352.305" fill="#0A0909" transform="rotate(180 58.513 354.64)"/><rect width="4.148" height="13.036" x="97.637" y="353.145" fill="#0A0909" transform="rotate(180 99.717 359.66)"/><rect width="4.148" height="13.036" x="56.456" y="353.213" fill="#0A0909" transform="rotate(180 58.537 359.73)"/></g></g><g><path fill="#FC7F61" d="M383.379,217.378c0,0,14.536,12.925,22.736,16.85c8.2,3.926,15.611,7.658,17.608,7.763
			c1.997,0.105,6.413-0.158,9.514,0.473c3.101,0.631,7.358,3.152,7.358,3.152h-29.529c0,0-7.737-0.556-14.15-3.247
			c-6.413-2.691-19.064-11.922-19.064-11.922l2.272-6.8L383.379,217.378z"/><path fill="#0A0909" d="M379.996,195.111c0,0,2.567,1.723,5.767,0.835c3.199-0.889,2.544-4.712,1.62-6.115
			c0,0,2.125-0.797,2.632-3.741c0.506-2.943-1.976-4.852-3.876-4.884c-1.9-0.032-2.894,0.826-2.894,0.826s-0.439-2.139-2.947-2.661
			c-2.508-0.522-3.449,1.77-3.449,1.77s-4.215-2.973-7.022-2.561c-2.807,0.412-4.416,8.295-4.416,8.295L379.996,195.111z"/><path fill="#1036BF" d="M354.128,200.663c-4.367-0.145-11.792,3.004-18.593,13.262c-6.802,10.258-11.867,22.966-14.9,32.853
			c-3.033,9.887-3.533,15.062-3.533,15.062s13.308,1.891,27.757,3.431c14.449,1.54,25.73,2.737,25.73,2.737
			s-0.661-12.468,1.543-20.003l4.488-18.669c0,0,6.062-11.367,7.535-13.166c0,0-4.89-3.461-8.25-6.055
			c-3.36-2.594-6.907-6.926-8.34-8.207c-1.433-1.281-11.842-1.458-11.842-1.458L354.128,200.663z"/><path fill="#464D7B" d="M395.867,343.413l-1.622,20.532l32.118,2.73c0,0,0.71-5.055-6.838-9.34
			c-7.548-4.286-9.744-10.262-9.462-12.988L395.867,343.413z"/><path fill="#FC7F61" d="M363.35,192.373c-0.683-0.764-1.193-5.17,1.559-5.464c2.751-0.295,3.189,1.402,3.189,1.402
			s0,0.002,0.001,0.002c1.169-1.846,3.196-3.104,5.545-3.192c3.788-0.141,6.974,2.816,7.115,6.604
			c0.057,1.527-0.396,2.952-1.198,4.123l0.006,0.003c0,0-4.451,6.609-7.265,6.483c-1.437-0.064-2.809-0.314-3.984-0.97
			c0,0.001-0.001,0.001-0.001,0.001c-2.08,3.694-2.765,8.839-2.765,8.839s-3.38-0.875-6.256-3.692s-3.573-6.063-3.573-6.063
			C358.795,198.218,363.35,192.373,363.35,192.373z"/><path fill="#0A0909" d="M380.41,194.137c-2.751,0.52-2.486-3.287-2.486-3.287s-2.128,0.592-3.174-1.318
			c-1.046-1.911,0.297-3.038,0.297-3.038s-1.692,1.412-3.295,1.079c-1.603-0.333-3.72,2.927-3.72,2.927l-0.921-0.787l0.986-1.402
			c0,0,1.541-3.771,3.37-4.25c1.829-0.479,8.532,0.401,9.796,2.663c1.264,2.262-0.402,7.814-0.402,7.814L380.41,194.137z"/><polygon fill="#0A0909" points="367.918 190.709 366.939 189.899 366.641 190.166 367.775 190.996"/><path fill="#0A0909" d="M368.317,201.365c-2.189-1.534-2.798-4.477-2.798-4.477s-1.069,4.843,1.411,7.642
			C366.929,204.53,367.642,202.467,368.317,201.365z"/><path fill="#FEB91E" d="M317.102,261.839c-1.773,10.251,3.855,34.669,8.672,34.49c4.816-0.179,43.487-0.592,47.082,2.25
			c3.595,2.842,0.168,26.571,0.168,26.571l21.52,1.97l0.952-4.756l18.442,1.982c0,0,2.956-22.583-0.021-33.657
			s-9.858-19.079-43.327-22.682C337.121,264.404,317.102,261.839,317.102,261.839z"/><path fill="#FC7F61" d="M393.307 327.008c-.763 5.677-4.916 22.327-4.916 22.327l-15.017-2.315c0 0 1.029-17.909 1.58-21.693L393.307 327.008zM412.477 324.19c-1.01 6.175-2.414 20.157-2.414 20.157l-14.196-.934-.373-21.048L412.477 324.19z"/><path fill="#464D7B" d="M388.391,349.335c-0.544,3.997,0.78,7.872,6.132,10.367c5.352,2.495,6.736,4.521,7.63,7.874l-31.776-2.05
			l2.998-18.505L388.391,349.335z"/><path fill="#FFF" d="M395.412 360.131c-1.284 1.33-3.962 1.071-6.729-1.597-2.767-2.668-3.821-9.145-3.121-10.915s3.149-.354 2.938 1.282c-.211 1.637-.315 3.961 1.177 6.518C391.083 357.831 393.063 359.064 395.412 360.131zM420.611 357.993c-2.613 1.041-4.84.483-8.663-2.98-3.823-3.462-5.482-8.634-5.371-10.895.11-2.262 3.7-1.841 3.7-1.841s-.168.529-.213 2.07c-.045 1.541 1.298 5.939 4.168 8.611C417.101 355.63 418.895 356.746 420.611 357.993zM355.723 200.449l-1.595.213c0 0 .704 3.745 3.205 6.846 2.501 3.101 4.89 4.282 8.438 4.958l-.218-2.262c0 0-3.221-.727-6.025-3.701C356.723 203.529 355.723 200.449 355.723 200.449z"/><path fill="#0A0909" d="M360.709 238.283c.335.456.637.841.903 1.17L360.709 238.283c0 0 3.466-6.132 11.128-13.267-5.364 6.33-8.107 10.332-10.198 14.469.639.785 1.172 1.181 1.172 1.181s-2.422 2.438-3.346 2.434C358.541 243.097 359.178 240.572 360.709 238.283zM383.379 217.378c-1.848 3.429-5.527 13.069-5.527 13.069l-1.232-1.112C376.621 229.335 379.926 221.358 383.379 217.378z"/><polygon fill="#0A0909" points="393.307 327.008 374.696 327.7 374.954 325.328"/><polygon fill="#0A0909" points="412.477 324.19 395.538 324.82 395.495 322.365"/><path fill="#0A0909" d="M395.842 320.913c-.007 0-.014 0-.021-.001-.132-.012-.229-.128-.217-.26.24-2.687.542-5.545.833-8.31 1.228-11.644 2.496-23.684.21-30.07-2.789-7.798-11.013-10.852-11.095-10.882-.125-.045-.188-.182-.144-.306.045-.125.186-.188.306-.144.085.03 8.517 3.156 11.384 11.169 2.322 6.491 1.048 18.586-.185 30.282-.292 2.763-.593 5.619-.833 8.303C396.07 320.819 395.966 320.913 395.842 320.913zM395.495 322.604c-.007 0-.015 0-.022-.001l-12.744-1.205c-.132-.013-.229-.129-.216-.261.012-.131.113-.227.261-.216l12.744 1.205c.132.013.229.129.216.261C395.721 322.511 395.617 322.604 395.495 322.604zM380.552 320.903c-.012 0-.023-.001-.036-.003l-6.852-1.037c-.13-.02-.221-.142-.2-.272.02-.13.127-.225.272-.2l6.852 1.037c.13.02.221.142.2.272C380.771 320.818 380.669 320.903 380.552 320.903z"/><path fill="#0A0909" d="M414.591 318.344c-.012 0-.023-.001-.035-.003l-18.232-2.714c-.131-.02-.221-.141-.201-.271.019-.131.141-.226.271-.201l18.232 2.714c.131.02.221.141.201.271C414.809 318.259 414.708 318.344 414.591 318.344zM385.863 355.979c-.123 0-.228-.095-.238-.219-.012-.132.087-.248.218-.259l3.813-.321c.128-.028.247.087.259.218.012.132-.087.248-.218.259l-3.813.321C385.877 355.979 385.87 355.979 385.863 355.979zM388.379 350.959c-.005 0-.011 0-.016-.001l-3.999-.261c-.132-.008-.231-.122-.223-.254s.12-.246.254-.223l3.999.261c.132.008.231.122.223.254C388.609 350.863 388.504 350.959 388.379 350.959z"/><path fill="#0A0909" d="M389.661 353.136c-.98 0-2.382-1.847-2.662-2.229-.042-.059-.055-.13-.04-.195-.022-.077-.006-.165.052-.229.108-.118 2.662-2.896 4.456-1.875.407.231.457.488.428.663-.105.619-1.606 1.113-2.904 1.428.504.132 1.013.357 1.286.742.214.303.257.675.122 1.075-.15.449-.424.581-.627.612C389.735 353.133 389.698 353.136 389.661 353.136zM387.668 350.991c.662.825 1.615 1.736 2.03 1.664.039-.006.157-.024.247-.292.086-.257.066-.468-.06-.646C389.498 351.169 388.223 351.011 387.668 350.991zM390.593 348.864c-1.009 0-2.238.963-2.924 1.627 1.958-.372 3.697-.973 3.753-1.301.001-.009-.026-.072-.192-.167C391.035 348.912 390.82 348.864 390.593 348.864zM411.182 356.749c-.102 0-.195-.064-.228-.166-.041-.126.029-.261.154-.301l5.199-1.661c.126-.04.261.029.301.154.041.126-.029.261-.154.301l-5.199 1.661C411.231 356.745 411.207 356.749 411.182 356.749zM409.131 354.01c-.12 0-.224-.09-.237-.212-.016-.131.079-.25.21-.265l5.318-.612c.13-.033.25.079.265.21.016.131-.079.25-.21.265l-5.318.612C409.149 354.01 409.139 354.01 409.131 354.01zM412.429 351.607c-.23 0-.456-.052-.676-.155-1.428-.672-2.14-3.399-2.306-4.126l-4.822-.471c-.132-.013-.228-.13-.215-.262.014-.132.127-.236.262-.215l4.893.479c.67-.568 5.102-4.154 7.813-1.883.506.424.69.827.55 1.199-.431 1.133-4.25 1.284-6.253 1.284-.034 0-.067 0-.1 0 .997.621 2.533 1.746 2.537 2.787.002.456-.271.835-.81 1.124C413.007 351.528 412.715 351.607 412.429 351.607zM409.952 347.375c.209.843.867 3.108 2.006 3.644.354.165.719.143 1.119-.072.376-.202.559-.431.558-.7-.004-.977-2.161-2.337-3.045-2.81L409.952 347.375zM410.685 346.966c2.629.074 6.497-.175 6.796-.963.08-.211-.223-.505-.409-.662-2.097-1.758-5.595.63-6.824 1.582l.431.043C410.68 346.966 410.683 346.966 410.685 346.966zM364.803 191.616c-.067 0-.135-.028-.183-.085-.085-.101-.072-.251.027-.337.009-.007.834-.721.846-1.647.008-.538-.262-1.056-.801-1.54-.098-.088-.106-.239-.018-.338.087-.099.238-.106.338-.018.646.581.97 1.222.959 1.905-.017 1.146-.974 1.969-1.015 2.003C364.913 191.597 364.858 191.616 364.803 191.616z"/><path fill="#0A0909" d="M363.647 190.26c-.034 0-.068-.007-.101-.022-.12-.056-.172-.197-.116-.317.232-.5.567-.833.997-.988.69-.251 1.352.06 1.38.072.119.057.17.198.114.318-.056.119-.196.169-.318.115-.12-.057-1.187-.509-1.739.684C363.824 190.209 363.737 190.26 363.647 190.26zM371.814 224.522c-.033 0-.065-.014-.09-.041-.233-.264-5.735-6.514-6.014-10.389-.005-.066.045-.123.11-.128.076-.004.124.046.128.11.272 3.794 5.898 10.184 5.955 10.248.044.049.039.125-.011.169C371.871 224.511 371.842 224.522 371.814 224.522zM358.45 242.489c-.027 0-.054-.01-.076-.028-6.921-5.737-15.595-18.095-15.681-18.219-.038-.054-.025-.129.029-.166.053-.039.13-.025.166.029.087.124 8.742 12.454 15.638 18.172.051.042.058.117.016.168C358.518 242.473 358.484 242.489 358.45 242.489z"/><path fill="#0A0909" d="M344.73,228.715c-1.191,0-2.922-0.399-3.722-2.515c-0.023-0.062,0.008-0.131,0.07-0.154
				c0.062-0.024,0.131,0.01,0.154,0.07c1.197,3.171,4.535,2.263,4.676,2.222c0.066-0.015,0.13,0.02,0.148,0.082
				c0.018,0.063-0.019,0.13-0.082,0.148C345.962,228.573,345.441,228.715,344.73,228.715z"/><circle cx="377.522" cy="197.368" r=".644" fill="#0A0909" transform="rotate(-2.144 377.313 197.363)"/><circle cx="373.955" cy="194.056" r=".644" fill="#0A0909" transform="rotate(-2.144 373.929 194.19)"/><path fill="#0A0909" d="M373.524 200.026C373.524 200.026 373.524 200.026 373.524 200.026c-.132 0-.239-.107-.239-.238-.001-.059-.026-.543-.584-.661-.129-.027-.212-.154-.185-.284.027-.129.154-.206.284-.185.764.162.964.81.963 1.13C373.763 199.919 373.656 200.026 373.524 200.026zM381.656 200.49c-.031 0-.063-.013-.086-.037l-3.063-3.18c-.046-.048-.045-.123.003-.169.048-.047.123-.046.169.003l3.063 3.18c.046.048.045.123-.003.169C381.716 200.478 381.686 200.49 381.656 200.49zM373.308 197.277c-.809 0-1.575-.301-2.171-.854-.626-.581-.987-1.371-1.019-2.224l0 0c-.066-1.761 1.313-3.247 3.073-3.313.041-.002.081-.003.121-.003 1.708 0 3.129 1.356 3.192 3.077.065 1.761-1.314 3.247-3.074 3.313C373.39 197.276 373.349 197.277 373.308 197.277zM373.314 191.124c-.037 0-.075.001-.112.002-1.63.062-2.905 1.437-2.845 3.064l0 0c.029.79.364 1.521.943 2.058.578.537 1.33.82 2.121.788 1.629-.062 2.905-1.437 2.846-3.064-.03-.79-.365-1.521-.944-2.058C374.772 191.402 374.062 191.124 373.314 191.124z"/><path fill="#FFF" d="M371.66,202.452c-1.444,0-2.571-0.467-2.651-0.5c-0.121-0.052-0.178-0.192-0.126-0.314
				c0.051-0.122,0.188-0.177,0.313-0.127c0.029,0.013,3.132,1.292,5.524-0.513c2.472-1.864,5.047-5.972,5.072-6.014
				c0.07-0.111,0.215-0.147,0.33-0.076c0.111,0.07,0.146,0.218,0.076,0.33c-0.107,0.171-2.647,4.224-5.189,6.143
				C373.912,202.207,372.703,202.452,371.66,202.452z"/><path fill="#0A0909" d="M378.78 201.864c-1.708 0-3.128-1.356-3.191-3.077-.032-.854.27-1.668.851-2.293.581-.626 1.371-.988 2.224-1.02 1.775-.068 3.248 1.314 3.313 3.074.065 1.762-1.314 3.248-3.074 3.313C378.86 201.863 378.82 201.864 378.78 201.864zM378.782 195.71c-.036 0-.073.001-.109.002-.79.03-1.521.365-2.058.943-.537.579-.817 1.333-.788 2.121.06 1.593 1.374 2.848 2.953 2.848.037 0 .074-.001.111-.002 1.629-.061 2.905-1.436 2.846-3.064C381.677 196.966 380.362 195.71 378.782 195.71zM372.262 191.308c-.025 0-.052-.009-.073-.025l-4.453-3.47c-.053-.041-.062-.116-.021-.168.043-.051.117-.06.168-.021l4.453 3.47c.053.041.062.116.021.168C372.333 191.291 372.298 191.308 372.262 191.308z"/><path fill="#0A0909" d="M376.838,196.408c-0.063,0-0.114-0.049-0.119-0.111c-0.002-0.022-0.051-0.537-0.699-0.692
				c-0.064-0.016-0.104-0.08-0.089-0.144c0.015-0.065,0.082-0.104,0.144-0.089c0.66,0.157,0.866,0.663,0.883,0.908
				c0.005,0.065-0.045,0.123-0.111,0.127C376.843,196.407,376.841,196.408,376.838,196.408z"/><rect width="137.551" height="9.936" x="393.321" y="245.554" fill="#FEB91E" transform="rotate(180 462.09 250.53)"/><defs><rect id="c" width="137.551" height="9.936" x="393.321" y="245.554" transform="rotate(180 462.09 250.53)"/></defs><clipPath id="d"><use overflow="visible" xlink:href="#c"/></clipPath><g clip-path="url(#d)"><path fill="#FE891E" d="M520.405 250.757c-4.362 0-6.037-5.192-6.054-5.246-.059-.189.047-.391.235-.45.191-.06.39.046.45.235.015.05 1.627 5.008 5.685 4.732 4.153-.268 6.74-4.793 6.766-4.839.098-.173.316-.233.489-.137s.234.314.138.487c-.112.201-2.799 4.911-7.346 5.205C520.645 250.753 520.524 250.757 520.405 250.757zM525.813 254.375c-.06 0-.12-.016-.176-.047-.173-.097-.234-.315-.137-.488 1.905-3.384 5.184-3.872 5.322-3.892.206-.024.376.111.404.306.027.196-.109.377-.306.405-.03.004-3.07.469-4.796 3.532C526.06 254.309 525.938 254.375 525.813 254.375zM517.497 255.69c-.147 0-.285-.091-.338-.237-.013-.034-1.292-3.49-4.594-4.572-3.588-1.175-6.419-5.078-6.538-5.244-.115-.161-.078-.385.083-.501.161-.114.385-.078.501.083.027.038 2.814 3.879 6.177 4.98 3.644 1.193 4.991 4.856 5.047 5.012.066.187-.03.392-.217.459C517.578 255.683 517.537 255.69 517.497 255.69zM494.275 255.758c-.105 0-.211-.047-.281-.137-.123-.155-.097-.381.059-.504.172-.136 4.251-3.329 8.751-4.001 4.62-.692 7.888 3.835 8.024 4.028.114.161.076.385-.085.5-.162.112-.386.077-.501-.085-.03-.043-3.119-4.353-7.333-3.733-4.313.644-8.371 3.821-8.411 3.854C494.432 255.733 494.353 255.758 494.275 255.758zM496.512 249.208c-.271 0-.543-.04-.812-.128-2.65-.867-3.899-3.349-3.952-3.453-.087-.178-.015-.393.163-.48.174-.089.392-.016.48.162.012.023 1.175 2.318 3.531 3.09 2.256.735 5.072-3.127 5.102-3.167.114-.161.34-.197.501-.081.16.115.197.34.081.5C501.493 245.811 499.019 249.208 496.512 249.208zM484.378 255.787c-.131 0-.257-.072-.32-.197-1.138-2.241-1.003-4.274.361-5.438 1.356-1.157 3.524-1.078 5.274.192 3.043 2.206 6.206.226 6.237.206.166-.108.389-.06.495.108.107.166.059.389-.108.495-.035.023-3.609 2.265-7.046-.229-1.479-1.072-3.285-1.171-4.387-.227-1.095.935-1.165 2.642-.187 4.568.09.177.019.393-.158.482C484.488 255.774 484.432 255.787 484.378 255.787zM478.736 249.925c-3.059 0-6.808-3.97-6.979-4.154-.136-.145-.128-.372.017-.507.145-.137.372-.128.507.017.043.047 4.352 4.602 7.09 3.846 2.824-.779 4.935-3.81 4.955-3.84.111-.164.335-.207.499-.093.163.112.205.336.093.499-.092.133-2.275 3.276-5.355 4.125C479.294 249.892 479.017 249.925 478.736 249.925zM480.244 255.797c-.123 0-.243-.063-.31-.178-.082-.139-2.064-3.39-6.434-3.271-.047.002-.093.002-.14.002-4.762 0-9.524-6.315-9.728-6.587-.118-.159-.085-.384.073-.503.158-.117.383-.085.503.073.047.063 4.75 6.299 9.151 6.299.041 0 .08 0 .12-.001.084-.003.166-.004.248-.004 4.66 0 6.737 3.479 6.825 3.63.1.171.041.391-.13.49C480.368 255.782 480.305 255.797 480.244 255.797zM469.318 255.829c-.121 0-.239-.061-.307-.172-.038-.063-3.913-6.338-8.342-3.807-.17.098-.39.039-.489-.134-.099-.172-.039-.391.134-.489 5.023-2.873 9.269 3.987 9.311 4.057.103.17.049.391-.12.493C469.446 255.812 469.382 255.829 469.318 255.829zM446.473 255.895c-.028 0-.057-.004-.085-.011-.193-.047-.311-.241-.264-.434.503-2.054 2.918-5.248 7.51-5.636 3.969-.335 4.243-4.111 4.253-4.271.012-.197.18-.328.38-.337.198.012.349.183.337.38-.003.046-.33 4.558-4.909 4.943-4.185.354-6.437 3.311-6.873 5.091C446.782 255.785 446.635 255.895 446.473 255.895zM440.939 251.715c-4.805 0-9.931-5.564-10.173-5.831-.133-.146-.122-.373.024-.507s.372-.122.507.024c.063.069 6.411 6.962 11.196 5.349 4.806-1.623 5.879-5.22 5.889-5.256.054-.19.247-.307.443-.247.19.054.301.251.248.441-.045.162-1.168 3.991-6.35 5.741C442.141 251.627 441.543 251.715 440.939 251.715zM423.197 255.96c-.086 0-.173-.03-.241-.093-.146-.134-.157-.36-.024-.507.166-.183 4.111-4.464 8.377-4.558 4.326-.104 6.382 4.422 6.466 4.614.079.181-.004.393-.185.472-.181.077-.394-.003-.474-.184-.019-.043-1.887-4.187-5.677-4.187-.038 0-.076.001-.115.001-3.956.088-7.823 4.281-7.861 4.323C423.391 255.921 423.295 255.96 423.197 255.96zM415.88 253.849c-.055 0-.109-.013-.162-.039-.175-.09-.246-.303-.158-.479.047-.093 1.191-2.276 6.078-2.988 4.401-.64 4.697-4.544 4.708-4.709.013-.197.192-.362.38-.336.198.012.349.181.337.379-.003.046-.332 4.651-5.321 5.377-4.472.65-5.53 2.582-5.541 2.601C416.135 253.778 416.01 253.849 415.88 253.849zM412.86 250.104c-3.006 0-6.046-3.991-6.185-4.176-.119-.158-.087-.384.071-.503.158-.117.383-.087.503.071.034.046 3.456 4.512 6.217 3.816 2.884-.729 5.148-3.814 5.172-3.846.114-.162.341-.198.501-.079.16.116.196.341.079.501-.098.136-2.443 3.327-5.576 4.119C413.383 250.074 413.122 250.104 412.86 250.104zM411.341 255.995c-.197 0-.357-.16-.359-.357 0-.114-.055-2.809-3.456-3.383-3.906-.659-6.375-6.147-6.478-6.381-.08-.182.002-.394.183-.474s.393.001.474.183c.023.054 2.416 5.369 5.94 5.965 4.014.677 4.056 4.056 4.056 4.09C411.7 255.834 411.54 255.994 411.341 255.995L411.341 255.995zM401.268 256.023c-.179 0-.333-.132-.356-.313-.033-.263-.896-6.441-7.676-7.924-.194-.042-.316-.233-.274-.427.043-.194.232-.321.427-.274 7.286 1.593 8.228 8.467 8.236 8.535.024.197-.115.376-.312.4C401.298 256.022 401.283 256.023 401.268 256.023zM395.031 253.202c-1.342 0-1.925-.56-1.958-.594-.141-.14-.142-.367-.001-.507.137-.139.362-.142.503-.005.026.022.952.817 3.305.058.188-.061.391.042.452.231.061.188-.043.391-.231.452C396.271 253.106 395.587 253.202 395.031 253.202z"/></g><path fill="#0A0909" d="M393.336,255.927c-0.132,0-0.239-0.106-0.239-0.238c0-0.133,0.106-0.24,0.238-0.24l137.55-0.395
					c0.001,0,0.001,0,0.001,0c0.132,0,0.239,0.106,0.239,0.238c0,0.133-0.106,0.24-0.238,0.24L393.336,255.927
					C393.336,255.927,393.336,255.927,393.336,255.927z"/><polygon fill="#0A0909" points="414.591 255.688 426.381 255.688 386.265 369.246 383.341 369.246"/><polygon fill="#0A0909" points="504.913 255.294 493.123 255.294 533.238 368.852 536.163 368.852"/><path fill="#0A0909" d="M373.578,370.138c-0.43,0-0.786-0.339-0.805-0.772l-2.642-63.941c-0.018-0.444,0.328-0.82,0.772-0.839
				c0.428-0.007,0.82,0.327,0.839,0.772l2.642,63.941c0.018,0.444-0.328,0.82-0.772,0.839
				C373.6,370.138,373.59,370.138,373.578,370.138z"/><path fill="#464D7B" d="M315.546 305.391h58.07c1.362 0 2.544-.943 2.845-2.272l1.098-4.841c.414-1.825-.974-3.563-2.845-3.563h-58.07c-1.363 0-2.544.943-2.845 2.272l-1.098 4.841C312.287 303.653 313.674 305.391 315.546 305.391zM323.937 268.589h50.221c1.178 0 2.2-.755 2.461-1.818l.949-3.873c.358-1.46-.842-2.85-2.461-2.85h-50.221c-1.178 0-2.2.755-2.46 1.818l-.95 3.873C321.118 267.199 322.318 268.589 323.937 268.589zM306.839 263.945l-5.113-39.182c-.12-.919-.972-1.619-2.053-1.684l-3.937-.24c-1.484-.09-2.74 1.026-2.576 2.289l5.113 39.182c.12.919.972 1.619 2.053 1.684l3.937.24C305.748 266.324 307.004 265.208 306.839 263.945z"/><path fill="#0A0909" d="M313.737 370.138c-.019 0-.037 0-.056-.002-.443-.029-.779-.414-.749-.858l4.32-63.941c.029-.443.409-.806.858-.749.443.029.779.414.749.858l-4.32 63.941C314.511 369.812 314.157 370.138 313.737 370.138zM321.016 295.521c-.056 0-.111-.005-.167-.018-.436-.092-.715-.519-.622-.954l5.515-26.127c.092-.437.525-.723.954-.622.436.092.715.519.622.954l-5.515 26.127C321.723 295.261 321.389 295.521 321.016 295.521zM368.958 295.521c-.033 0-.067-.002-.102-.006-.442-.056-.755-.459-.699-.9l3.302-26.127c.057-.442.461-.746.9-.699.442.056.755.459.699.9l-3.302 26.127C369.705 295.224 369.358 295.521 368.958 295.521z"/><g><path fill="#0A0909" d="M315.546,306.197c-9.706,0-17.387-38.618-18.231-43.022l-5.59-41.513c-0.06-0.441,0.25-0.847,0.691-0.906
				c0.432-0.063,0.846,0.249,0.906,0.691l5.583,41.469c2.217,11.559,9.542,41.67,16.641,41.67c0.445,0,0.806,0.36,0.806,0.806
				S315.991,306.197,315.546,306.197z"/></g><rect width="40.558" height="1.929" x="429.623" y="243.689" fill="#F7EBD2"/><g><path fill="#1036BF" d="M296.925,368.938l50.873-0.084c1.842-0.003,3.333-1.499,3.33-3.341l-0.061-37.211l-57.543,0.095
				l0.061,37.211C293.587,367.451,295.083,368.941,296.925,368.938z"/><rect width="59.543" height="28.488" x="292.546" y="328.351" fill="#6696F8" transform="rotate(180 322.326 342.587)"/><rect width="10.207" height="3.761" x="334.101" y="354.826" fill="#0A0909" transform="rotate(180 339.212 356.699)"/><rect width="10.207" height="3.761" x="300.912" y="354.985" fill="#0A0909" transform="rotate(180 306.024 356.858)"/><rect width="3.343" height="10.506" x="337.54" y="355.662" fill="#0A0909" transform="rotate(180 339.22 360.907)"/><rect width="3.343" height="10.506" x="304.351" y="355.717" fill="#0A0909" transform="rotate(180 306.03 360.962)"/></g><g><rect width="2.933" height="14.642" x="426.354" y="222.159" fill="#0A0909" fill-rule="evenodd" clip-rule="evenodd" transform="rotate(135.089 427.823 229.477)"/><polygon fill-rule="evenodd" points="434.458 236.138 434.028 233.63 431.951 235.701" clip-rule="evenodd"/><polygon fill="#FC2222" fill-rule="evenodd" points="434.509 236.749 435.259 236.355 434.336 235.429 433.763 236.001" clip-rule="evenodd"/><polygon fill="#FC2222" fill-rule="evenodd" points="427.035 226.616 424.029 227.754 428.754 232.494 431.839 231.435" clip-rule="evenodd"/><path fill="#FB7E60" fill-rule="evenodd" d="M371.837,225.016c0,0-6.007,6.275-10.198,14.469
				c0,0,3.052,3.615,10.68,7.742c10.4,2.648,23.137,1.005,30.691-2.508c7.555-3.513,13.083-6.486,18.373-7.671
				c5.289-1.185,7.748,0.63,8.445-1.477c0.697-2.107,0.347-3.357,1.921-4.073c1.574-0.716,5.839-0.832,4.581-1.62
				c-1.258-0.789-10.204,0.612-10.736-0.408c-0.532-1.02-0.397-0.913-2.148-2.485c0,0,0.278,0.908-2.621,2.159
				c-2.897,1.25-23.477,7.006-31.798,4.914L371.837,225.016z" clip-rule="evenodd"/></g></g></svg>