<svg xmlns="http://www.w3.org/2000/svg" enable-background="new 0 0 1364 960" viewBox="0 0 1364 960"><path fill="#FFC4EB" d="M886.941 318.217c0-4.624 3.748-8.372 8.371-8.372 4.623 0 8.371 3.748 8.371 8.372 0 4.623-3.748 8.371-8.371 8.371C890.689 326.589 886.941 322.841 886.941 318.217zM920.426 318.217c0-4.624 3.748-8.372 8.371-8.372s8.371 3.748 8.371 8.372c0 4.623-3.748 8.371-8.371 8.371S920.426 322.841 920.426 318.217zM953.912 318.217c0-4.624 3.748-8.372 8.371-8.372 4.624 0 8.371 3.748 8.371 8.372 0 4.623-3.748 8.371-8.371 8.371C957.66 326.589 953.912 322.841 953.912 318.217zM987.398 318.217c0-4.624 3.748-8.372 8.371-8.372 4.623 0 8.371 3.748 8.371 8.372 0 4.623-3.748 8.371-8.371 8.371C991.146 326.589 987.398 322.841 987.398 318.217zM1020.883 318.217c0-4.624 3.748-8.372 8.372-8.372s8.371 3.748 8.371 8.372c0 4.623-3.748 8.371-8.371 8.371S1020.883 322.841 1020.883 318.217zM1054.369 318.217c0-4.624 3.748-8.372 8.371-8.372 4.623 0 8.371 3.748 8.371 8.372 0 4.623-3.748 8.371-8.371 8.371C1058.117 326.589 1054.369 322.841 1054.369 318.217zM1087.855 318.217c0-4.624 3.748-8.372 8.371-8.372 4.624 0 8.371 3.748 8.371 8.372 0 4.623-3.748 8.371-8.371 8.371C1091.603 326.589 1087.855 322.841 1087.855 318.217z"/><circle cx="895.312" cy="354.114" r="8.371" fill="#FFC4EB"/><circle cx="928.798" cy="354.114" r="8.371" fill="#FFC4EB"/><circle cx="962.284" cy="354.114" r="8.371" fill="#FFC4EB"/><circle cx="995.769" cy="354.114" r="8.371" fill="#FFC4EB"/><path fill="#FFC4EB" d="M1020.883,354.114c0-4.623,3.748-8.371,8.372-8.371s8.371,3.748,8.371,8.371
	c0,4.623-3.748,8.371-8.371,8.371S1020.883,358.737,1020.883,354.114z"/><circle cx="1062.741" cy="354.114" r="8.371" fill="#FFC4EB"/><circle cx="1096.226" cy="354.114" r="8.371" fill="#FFC4EB"/><circle cx="895.312" cy="390.01" r="8.371" fill="#FFC4EB" transform="rotate(-45.001 895.312 390.022)"/><circle cx="928.798" cy="390.01" r="8.371" fill="#FFC4EB" transform="rotate(-76.714 928.878 390.012)"/><circle cx="962.284" cy="390.01" r="8.371" fill="#FFC4EB" transform="rotate(-22.5 962.238 389.996)"/><circle cx="995.769" cy="390.01" r="8.371" fill="#FFC4EB" transform="rotate(-22.5 995.722 389.996)"/><path fill="#FFC4EB" d="M1020.883,390.01c0-4.623,3.748-8.371,8.372-8.371s8.371,3.748,8.371,8.371c0,4.623-3.748,8.371-8.371,8.371
	S1020.883,394.633,1020.883,390.01z"/><circle cx="1062.741" cy="390.01" r="8.371" fill="#FFC4EB" transform="rotate(-22.5 1062.69 389.996)"/><circle cx="1096.226" cy="390.01" r="8.371" fill="#FFC4EB" transform="rotate(-22.5 1096.174 389.997)"/><path fill="#FFC4EB" d="M886.941 425.907c0-4.623 3.748-8.372 8.371-8.372 4.623 0 8.371 3.748 8.371 8.372 0 4.623-3.748 8.371-8.371 8.371C890.689 434.278 886.941 430.53 886.941 425.907zM920.426 425.907c0-4.623 3.748-8.372 8.371-8.372s8.371 3.748 8.371 8.372c0 4.623-3.748 8.371-8.371 8.371S920.426 430.53 920.426 425.907zM953.912 425.907c0-4.623 3.748-8.372 8.371-8.372 4.624 0 8.371 3.748 8.371 8.372 0 4.623-3.748 8.371-8.371 8.371C957.66 434.278 953.912 430.53 953.912 425.907zM987.398 425.907c0-4.623 3.748-8.372 8.371-8.372 4.623 0 8.371 3.748 8.371 8.372 0 4.623-3.748 8.371-8.371 8.371C991.146 434.278 987.398 430.53 987.398 425.907zM1020.883 425.907c0-4.623 3.748-8.372 8.372-8.372s8.371 3.748 8.371 8.372c0 4.623-3.748 8.371-8.371 8.371S1020.883 430.53 1020.883 425.907zM1054.369 425.907c0-4.623 3.748-8.372 8.371-8.372 4.623 0 8.371 3.748 8.371 8.372 0 4.623-3.748 8.371-8.371 8.371C1058.117 434.278 1054.369 430.53 1054.369 425.907zM1087.855 425.907c0-4.623 3.748-8.372 8.371-8.372 4.624 0 8.371 3.748 8.371 8.372 0 4.623-3.748 8.371-8.371 8.371C1091.603 434.278 1087.855 430.53 1087.855 425.907z"/><circle cx="895.312" cy="461.803" r="8.371" fill="#FFC4EB"/><circle cx="928.798" cy="461.803" r="8.371" fill="#FFC4EB"/><circle cx="962.284" cy="461.803" r="8.371" fill="#FFC4EB"/><circle cx="995.769" cy="461.803" r="8.371" fill="#FFC4EB"/><path fill="#FFC4EB" d="M1020.883,461.803c0-4.624,3.748-8.371,8.372-8.371s8.371,3.748,8.371,8.371
	c0,4.623-3.748,8.371-8.371,8.371S1020.883,466.426,1020.883,461.803z"/><circle cx="1062.741" cy="461.803" r="8.371" fill="#FFC4EB"/><circle cx="1096.226" cy="461.803" r="8.371" fill="#FFC4EB"/><circle cx="895.312" cy="497.699" r="8.371" fill="#FFC4EB"/><circle cx="928.798" cy="497.699" r="8.371" fill="#FFC4EB"/><circle cx="962.284" cy="497.699" r="8.371" fill="#FFC4EB"/><circle cx="995.769" cy="497.699" r="8.371" fill="#FFC4EB"/><path fill="#FFC4EB" d="M1020.883,497.699c0-4.624,3.748-8.371,8.372-8.371s8.371,3.748,8.371,8.371
	c0,4.623-3.748,8.371-8.371,8.371S1020.883,502.323,1020.883,497.699z"/><circle cx="1062.741" cy="497.699" r="8.371" fill="#FFC4EB"/><circle cx="1096.226" cy="497.699" r="8.371" fill="#FFC4EB"/><path fill="#FFC4EB" d="M1119.143 318.217c0-4.624 3.748-8.372 8.371-8.372 4.623 0 8.371 3.748 8.371 8.372 0 4.623-3.748 8.371-8.371 8.371C1122.891 326.589 1119.143 322.841 1119.143 318.217zM1152.629 318.217c0-4.624 3.748-8.372 8.371-8.372s8.371 3.748 8.371 8.372c0 4.623-3.748 8.371-8.371 8.371S1152.629 322.841 1152.629 318.217zM1186.115 318.217c0-4.624 3.748-8.372 8.371-8.372 4.624 0 8.372 3.748 8.372 8.372 0 4.623-3.748 8.371-8.372 8.371C1189.863 326.589 1186.115 322.841 1186.115 318.217zM1219.6 318.217c0-4.624 3.748-8.372 8.371-8.372 4.623 0 8.371 3.748 8.371 8.372 0 4.623-3.748 8.371-8.371 8.371C1223.348 326.589 1219.6 322.841 1219.6 318.217zM1253.086 318.217c0-4.624 3.748-8.372 8.371-8.372s8.371 3.748 8.371 8.372c0 4.623-3.748 8.371-8.371 8.371S1253.086 322.841 1253.086 318.217zM1286.572 318.217c0-4.624 3.748-8.372 8.371-8.372 4.623 0 8.371 3.748 8.371 8.372 0 4.623-3.748 8.371-8.371 8.371C1290.32 326.589 1286.572 322.841 1286.572 318.217zM1320.057 318.217c0-4.624 3.748-8.372 8.371-8.372s8.371 3.748 8.371 8.372c0 4.623-3.748 8.371-8.371 8.371S1320.057 322.841 1320.057 318.217z"/><circle cx="1127.515" cy="354.114" r="8.371" fill="#FFC4EB"/><circle cx="1161" cy="354.114" r="8.371" fill="#FFC4EB"/><path fill="#FFC4EB" d="M1186.115,354.114c0-4.623,3.748-8.371,8.371-8.371c4.624,0,8.372,3.748,8.372,8.371
	c0,4.623-3.748,8.371-8.372,8.371C1189.863,362.485,1186.115,358.737,1186.115,354.114z"/><circle cx="1227.972" cy="354.114" r="8.371" fill="#FFC4EB"/><circle cx="1261.457" cy="354.114" r="8.371" fill="#FFC4EB"/><circle cx="1294.943" cy="354.114" r="8.371" fill="#FFC4EB"/><path fill="#FFC4EB" d="M1320.057,354.114c0-4.623,3.748-8.371,8.371-8.371s8.371,3.748,8.371,8.371
	c0,4.623-3.748,8.371-8.371,8.371S1320.057,358.737,1320.057,354.114z"/><circle cx="1127.515" cy="390.01" r="8.371" fill="#FFC4EB" transform="rotate(-22.5 1127.461 389.997)"/><circle cx="1161" cy="390.01" r="8.371" fill="#FFC4EB" transform="rotate(-22.5 1160.945 389.997)"/><path fill="#FFC4EB" d="M1186.115,390.01c0-4.623,3.748-8.371,8.371-8.371c4.624,0,8.372,3.748,8.372,8.371
	c0,4.623-3.748,8.371-8.372,8.371C1189.863,398.382,1186.115,394.633,1186.115,390.01z"/><circle cx="1227.972" cy="390.01" r="8.371" fill="#FFC4EB" transform="rotate(-22.5 1227.914 389.997)"/><circle cx="1261.457" cy="390.01" r="8.371" fill="#FFC4EB" transform="rotate(-76.714 1261.562 390.002)"/><circle cx="1294.943" cy="390.01" r="8.371" fill="#FFC4EB" transform="rotate(-22.5 1294.882 389.998)"/><path fill="#FFC4EB" d="M1320.057 390.01c0-4.623 3.748-8.371 8.371-8.371s8.371 3.748 8.371 8.371c0 4.623-3.748 8.371-8.371 8.371S1320.057 394.633 1320.057 390.01zM1119.143 425.907c0-4.623 3.748-8.372 8.371-8.372 4.623 0 8.371 3.748 8.371 8.372 0 4.623-3.748 8.371-8.371 8.371C1122.891 434.278 1119.143 430.53 1119.143 425.907zM1152.629 425.907c0-4.623 3.748-8.372 8.371-8.372s8.371 3.748 8.371 8.372c0 4.623-3.748 8.371-8.371 8.371S1152.629 430.53 1152.629 425.907zM1186.115 425.907c0-4.623 3.748-8.372 8.371-8.372 4.624 0 8.372 3.748 8.372 8.372 0 4.623-3.748 8.371-8.372 8.371C1189.863 434.278 1186.115 430.53 1186.115 425.907zM1219.6 425.907c0-4.623 3.748-8.372 8.371-8.372 4.623 0 8.371 3.748 8.371 8.372 0 4.623-3.748 8.371-8.371 8.371C1223.348 434.278 1219.6 430.53 1219.6 425.907zM1253.086 425.907c0-4.623 3.748-8.372 8.371-8.372s8.371 3.748 8.371 8.372c0 4.623-3.748 8.371-8.371 8.371S1253.086 430.53 1253.086 425.907zM1286.572 425.907c0-4.623 3.748-8.372 8.371-8.372 4.623 0 8.371 3.748 8.371 8.372 0 4.623-3.748 8.371-8.371 8.371C1290.32 434.278 1286.572 430.53 1286.572 425.907zM1320.057 425.907c0-4.623 3.748-8.372 8.371-8.372s8.371 3.748 8.371 8.372c0 4.623-3.748 8.371-8.371 8.371S1320.057 430.53 1320.057 425.907z"/><circle cx="1127.515" cy="461.803" r="8.371" fill="#FFC4EB"/><circle cx="1161" cy="461.803" r="8.371" fill="#FFC4EB"/><path fill="#FFC4EB" d="M1186.115,461.803c0-4.624,3.748-8.371,8.371-8.371c4.624,0,8.372,3.748,8.372,8.371
	c0,4.623-3.748,8.371-8.372,8.371C1189.863,470.174,1186.115,466.426,1186.115,461.803z"/><circle cx="1227.972" cy="461.803" r="8.371" fill="#FFC4EB"/><circle cx="1261.457" cy="461.803" r="8.371" fill="#FFC4EB"/><circle cx="1294.943" cy="461.803" r="8.371" fill="#FFC4EB"/><path fill="#FFC4EB" d="M1320.057,461.803c0-4.624,3.748-8.371,8.371-8.371s8.371,3.748,8.371,8.371
	c0,4.623-3.748,8.371-8.371,8.371S1320.057,466.426,1320.057,461.803z"/><circle cx="1127.515" cy="497.699" r="8.371" fill="#FFC4EB"/><circle cx="1161" cy="497.699" r="8.371" fill="#FFC4EB"/><path fill="#FFC4EB" d="M1186.115,497.699c0-4.624,3.748-8.371,8.371-8.371c4.624,0,8.372,3.748,8.372,8.371
	c0,4.623-3.748,8.371-8.372,8.371C1189.863,506.071,1186.115,502.323,1186.115,497.699z"/><circle cx="1227.972" cy="497.699" r="8.371" fill="#FFC4EB"/><circle cx="1261.457" cy="497.699" r="8.371" fill="#FFC4EB"/><circle cx="1294.943" cy="497.699" r="8.371" fill="#FFC4EB"/><path fill="#FFC4EB" d="M1320.057,497.699c0-4.624,3.748-8.371,8.371-8.371s8.371,3.748,8.371,8.371
	c0,4.623-3.748,8.371-8.371,8.371S1320.057,502.323,1320.057,497.699z"/><circle cx="895.312" cy="535.768" r="8.371" fill="#FFC4EB" transform="rotate(-45.001 895.31 535.781)"/><circle cx="928.798" cy="535.768" r="8.371" fill="#FFC4EB" transform="rotate(-76.714 928.882 535.78)"/><circle cx="962.284" cy="535.768" r="8.371" fill="#FFC4EB" transform="rotate(-22.5 962.237 535.747)"/><circle cx="995.769" cy="535.768" r="8.371" fill="#FFC4EB" transform="rotate(-22.5 995.721 535.748)"/><path fill="#FFC4EB" d="M1020.883,535.768c0-4.624,3.748-8.371,8.372-8.371s8.371,3.748,8.371,8.371
	c0,4.623-3.748,8.371-8.371,8.371S1020.883,540.392,1020.883,535.768z"/><circle cx="1062.741" cy="535.768" r="8.371" fill="#FFC4EB" transform="rotate(-22.5 1062.69 535.748)"/><circle cx="1096.226" cy="535.768" r="8.371" fill="#FFC4EB" transform="rotate(-22.5 1096.174 535.748)"/><path fill="#FFC4EB" d="M886.941 571.664c0-4.623 3.748-8.371 8.371-8.371 4.623 0 8.371 3.748 8.371 8.371 0 4.623-3.748 8.372-8.371 8.372C890.689 580.036 886.941 576.288 886.941 571.664zM920.426 571.664c0-4.623 3.748-8.371 8.371-8.371s8.371 3.748 8.371 8.371c0 4.623-3.748 8.372-8.371 8.372S920.426 576.288 920.426 571.664zM953.912 571.664c0-4.623 3.748-8.371 8.371-8.371 4.624 0 8.371 3.748 8.371 8.371 0 4.623-3.748 8.372-8.371 8.372C957.66 580.036 953.912 576.288 953.912 571.664zM987.398 571.664c0-4.623 3.748-8.371 8.371-8.371 4.623 0 8.371 3.748 8.371 8.371 0 4.623-3.748 8.372-8.371 8.372C991.146 580.036 987.398 576.288 987.398 571.664zM1020.883 571.664c0-4.623 3.748-8.371 8.372-8.371s8.371 3.748 8.371 8.371c0 4.623-3.748 8.372-8.371 8.372S1020.883 576.288 1020.883 571.664zM1054.369 571.664c0-4.623 3.748-8.371 8.371-8.371 4.623 0 8.371 3.748 8.371 8.371 0 4.623-3.748 8.372-8.371 8.372C1058.117 580.036 1054.369 576.288 1054.369 571.664zM1087.855 571.664c0-4.623 3.748-8.371 8.371-8.371 4.624 0 8.371 3.748 8.371 8.371 0 4.623-3.748 8.372-8.371 8.372C1091.603 580.036 1087.855 576.288 1087.855 571.664zM886.941 607.561c0-4.623 3.748-8.371 8.371-8.371 4.623 0 8.371 3.748 8.371 8.371 0 4.624-3.748 8.371-8.371 8.371C890.689 615.932 886.941 612.184 886.941 607.561zM920.426 607.561c0-4.623 3.748-8.371 8.371-8.371s8.371 3.748 8.371 8.371c0 4.624-3.748 8.371-8.371 8.371S920.426 612.184 920.426 607.561zM953.912 607.561c0-4.623 3.748-8.371 8.371-8.371 4.624 0 8.371 3.748 8.371 8.371 0 4.624-3.748 8.371-8.371 8.371C957.66 615.932 953.912 612.184 953.912 607.561zM987.398 607.561c0-4.623 3.748-8.371 8.371-8.371 4.623 0 8.371 3.748 8.371 8.371 0 4.624-3.748 8.371-8.371 8.371C991.146 615.932 987.398 612.184 987.398 607.561zM1020.883 607.561c0-4.623 3.748-8.371 8.372-8.371s8.371 3.748 8.371 8.371c0 4.624-3.748 8.371-8.371 8.371S1020.883 612.184 1020.883 607.561zM1054.369 607.561c0-4.623 3.748-8.371 8.371-8.371 4.623 0 8.371 3.748 8.371 8.371 0 4.624-3.748 8.371-8.371 8.371C1058.117 615.932 1054.369 612.184 1054.369 607.561zM1087.855 607.561c0-4.623 3.748-8.371 8.371-8.371 4.624 0 8.371 3.748 8.371 8.371 0 4.624-3.748 8.371-8.371 8.371C1091.603 615.932 1087.855 612.184 1087.855 607.561z"/><circle cx="895.312" cy="643.457" r="8.371" fill="#FFC4EB"/><circle cx="928.798" cy="643.457" r="8.371" fill="#FFC4EB"/><circle cx="962.284" cy="643.457" r="8.371" fill="#FFC4EB"/><circle cx="995.769" cy="643.457" r="8.371" fill="#FFC4EB"/><path fill="#FFC4EB" d="M1020.883,643.457c0-4.623,3.748-8.371,8.372-8.371s8.371,3.748,8.371,8.371
	c0,4.623-3.748,8.371-8.371,8.371S1020.883,648.081,1020.883,643.457z"/><circle cx="1062.741" cy="643.457" r="8.371" fill="#FFC4EB"/><circle cx="1096.226" cy="643.457" r="8.371" fill="#FFC4EB"/><path fill="#FFC4EB" d="M886.941 679.354c0-4.623 3.748-8.371 8.371-8.371 4.623 0 8.371 3.748 8.371 8.371 0 4.624-3.748 8.372-8.371 8.372C890.689 687.725 886.941 683.977 886.941 679.354zM920.426 679.354c0-4.623 3.748-8.371 8.371-8.371s8.371 3.748 8.371 8.371c0 4.624-3.748 8.372-8.371 8.372S920.426 683.977 920.426 679.354zM953.912 679.354c0-4.623 3.748-8.371 8.371-8.371 4.624 0 8.371 3.748 8.371 8.371 0 4.624-3.748 8.372-8.371 8.372C957.66 687.725 953.912 683.977 953.912 679.354zM987.398 679.354c0-4.623 3.748-8.371 8.371-8.371 4.623 0 8.371 3.748 8.371 8.371 0 4.624-3.748 8.372-8.371 8.372C991.146 687.725 987.398 683.977 987.398 679.354zM1020.883 679.354c0-4.623 3.748-8.371 8.372-8.371s8.371 3.748 8.371 8.371c0 4.624-3.748 8.372-8.371 8.372S1020.883 683.977 1020.883 679.354zM1054.369 679.354c0-4.623 3.748-8.371 8.371-8.371 4.623 0 8.371 3.748 8.371 8.371 0 4.624-3.748 8.372-8.371 8.372C1058.117 687.725 1054.369 683.977 1054.369 679.354zM1087.855 679.354c0-4.623 3.748-8.371 8.371-8.371 4.624 0 8.371 3.748 8.371 8.371 0 4.624-3.748 8.372-8.371 8.372C1091.603 687.725 1087.855 683.977 1087.855 679.354zM886.941 715.25c0-4.623 3.748-8.371 8.371-8.371 4.623 0 8.371 3.748 8.371 8.371 0 4.623-3.748 8.372-8.371 8.372C890.689 723.622 886.941 719.874 886.941 715.25zM920.426 715.25c0-4.623 3.748-8.371 8.371-8.371s8.371 3.748 8.371 8.371c0 4.623-3.748 8.372-8.371 8.372S920.426 719.874 920.426 715.25zM953.912 715.25c0-4.623 3.748-8.371 8.371-8.371 4.624 0 8.371 3.748 8.371 8.371 0 4.623-3.748 8.372-8.371 8.372C957.66 723.622 953.912 719.874 953.912 715.25zM987.398 715.25c0-4.623 3.748-8.371 8.371-8.371 4.623 0 8.371 3.748 8.371 8.371 0 4.623-3.748 8.372-8.371 8.372C991.146 723.622 987.398 719.874 987.398 715.25zM1020.883 715.25c0-4.623 3.748-8.371 8.372-8.371s8.371 3.748 8.371 8.371c0 4.623-3.748 8.372-8.371 8.372S1020.883 719.874 1020.883 715.25zM1054.369 715.25c0-4.623 3.748-8.371 8.371-8.371 4.623 0 8.371 3.748 8.371 8.371 0 4.623-3.748 8.372-8.371 8.372C1058.117 723.622 1054.369 719.874 1054.369 715.25zM1087.855 715.25c0-4.623 3.748-8.371 8.371-8.371 4.624 0 8.371 3.748 8.371 8.371 0 4.623-3.748 8.372-8.371 8.372C1091.603 723.622 1087.855 719.874 1087.855 715.25z"/><circle cx="1127.515" cy="535.768" r="8.371" fill="#FFC4EB" transform="rotate(-22.5 1127.46 535.748)"/><circle cx="1161" cy="535.768" r="8.371" fill="#FFC4EB" transform="rotate(-22.5 1160.945 535.748)"/><path fill="#FFC4EB" d="M1186.115,535.768c0-4.624,3.748-8.371,8.371-8.371c4.624,0,8.372,3.748,8.372,8.371
	c0,4.623-3.748,8.371-8.372,8.371C1189.863,544.14,1186.115,540.392,1186.115,535.768z"/><circle cx="1227.972" cy="535.768" r="8.371" fill="#FFC4EB" transform="rotate(-22.5 1227.913 535.749)"/><circle cx="1261.457" cy="535.768" r="8.371" fill="#FFC4EB" transform="rotate(-76.714 1261.566 535.77)"/><circle cx="1294.943" cy="535.768" r="8.371" fill="#FFC4EB" transform="rotate(-22.5 1294.881 535.749)"/><path fill="#FFC4EB" d="M1320.057 535.768c0-4.624 3.748-8.371 8.371-8.371s8.371 3.748 8.371 8.371c0 4.623-3.748 8.371-8.371 8.371S1320.057 540.392 1320.057 535.768zM1119.143 571.664c0-4.623 3.748-8.371 8.371-8.371 4.623 0 8.371 3.748 8.371 8.371 0 4.623-3.748 8.372-8.371 8.372C1122.891 580.036 1119.143 576.288 1119.143 571.664zM1152.629 571.664c0-4.623 3.748-8.371 8.371-8.371s8.371 3.748 8.371 8.371c0 4.623-3.748 8.372-8.371 8.372S1152.629 576.288 1152.629 571.664zM1186.115 571.664c0-4.623 3.748-8.371 8.371-8.371 4.624 0 8.372 3.748 8.372 8.371 0 4.623-3.748 8.372-8.372 8.372C1189.863 580.036 1186.115 576.288 1186.115 571.664zM1219.6 571.664c0-4.623 3.748-8.371 8.371-8.371 4.623 0 8.371 3.748 8.371 8.371 0 4.623-3.748 8.372-8.371 8.372C1223.348 580.036 1219.6 576.288 1219.6 571.664zM1253.086 571.664c0-4.623 3.748-8.371 8.371-8.371s8.371 3.748 8.371 8.371c0 4.623-3.748 8.372-8.371 8.372S1253.086 576.288 1253.086 571.664zM1286.572 571.664c0-4.623 3.748-8.371 8.371-8.371 4.623 0 8.371 3.748 8.371 8.371 0 4.623-3.748 8.372-8.371 8.372C1290.32 580.036 1286.572 576.288 1286.572 571.664zM1320.057 571.664c0-4.623 3.748-8.371 8.371-8.371s8.371 3.748 8.371 8.371c0 4.623-3.748 8.372-8.371 8.372S1320.057 576.288 1320.057 571.664zM1119.143 607.561c0-4.623 3.748-8.371 8.371-8.371 4.623 0 8.371 3.748 8.371 8.371 0 4.624-3.748 8.371-8.371 8.371C1122.891 615.932 1119.143 612.184 1119.143 607.561zM1152.629 607.561c0-4.623 3.748-8.371 8.371-8.371s8.371 3.748 8.371 8.371c0 4.624-3.748 8.371-8.371 8.371S1152.629 612.184 1152.629 607.561zM1186.115 607.561c0-4.623 3.748-8.371 8.371-8.371 4.624 0 8.372 3.748 8.372 8.371 0 4.624-3.748 8.371-8.372 8.371C1189.863 615.932 1186.115 612.184 1186.115 607.561zM1219.6 607.561c0-4.623 3.748-8.371 8.371-8.371 4.623 0 8.371 3.748 8.371 8.371 0 4.624-3.748 8.371-8.371 8.371C1223.348 615.932 1219.6 612.184 1219.6 607.561zM1253.086 607.561c0-4.623 3.748-8.371 8.371-8.371s8.371 3.748 8.371 8.371c0 4.624-3.748 8.371-8.371 8.371S1253.086 612.184 1253.086 607.561zM1286.572 607.561c0-4.623 3.748-8.371 8.371-8.371 4.623 0 8.371 3.748 8.371 8.371 0 4.624-3.748 8.371-8.371 8.371C1290.32 615.932 1286.572 612.184 1286.572 607.561zM1320.057 607.561c0-4.623 3.748-8.371 8.371-8.371s8.371 3.748 8.371 8.371c0 4.624-3.748 8.371-8.371 8.371S1320.057 612.184 1320.057 607.561z"/><circle cx="1127.515" cy="643.457" r="8.371" fill="#FFC4EB"/><circle cx="1161" cy="643.457" r="8.371" fill="#FFC4EB"/><path fill="#FFC4EB" d="M1186.115,643.457c0-4.623,3.748-8.371,8.371-8.371c4.624,0,8.372,3.748,8.372,8.371
	c0,4.623-3.748,8.371-8.372,8.371C1189.863,651.829,1186.115,648.081,1186.115,643.457z"/><circle cx="1227.972" cy="643.457" r="8.371" fill="#FFC4EB"/><circle cx="1261.457" cy="643.457" r="8.371" fill="#FFC4EB"/><circle cx="1294.943" cy="643.457" r="8.371" fill="#FFC4EB"/><path fill="#FFC4EB" d="M1320.057 643.457c0-4.623 3.748-8.371 8.371-8.371s8.371 3.748 8.371 8.371c0 4.623-3.748 8.371-8.371 8.371S1320.057 648.081 1320.057 643.457zM1119.143 679.354c0-4.623 3.748-8.371 8.371-8.371 4.623 0 8.371 3.748 8.371 8.371 0 4.624-3.748 8.372-8.371 8.372C1122.891 687.725 1119.143 683.977 1119.143 679.354zM1152.629 679.354c0-4.623 3.748-8.371 8.371-8.371s8.371 3.748 8.371 8.371c0 4.624-3.748 8.372-8.371 8.372S1152.629 683.977 1152.629 679.354zM1186.115 679.354c0-4.623 3.748-8.371 8.371-8.371 4.624 0 8.372 3.748 8.372 8.371 0 4.624-3.748 8.372-8.372 8.372C1189.863 687.725 1186.115 683.977 1186.115 679.354zM1219.6 679.354c0-4.623 3.748-8.371 8.371-8.371 4.623 0 8.371 3.748 8.371 8.371 0 4.624-3.748 8.372-8.371 8.372C1223.348 687.725 1219.6 683.977 1219.6 679.354zM1253.086 679.354c0-4.623 3.748-8.371 8.371-8.371s8.371 3.748 8.371 8.371c0 4.624-3.748 8.372-8.371 8.372S1253.086 683.977 1253.086 679.354zM1286.572 679.354c0-4.623 3.748-8.371 8.371-8.371 4.623 0 8.371 3.748 8.371 8.371 0 4.624-3.748 8.372-8.371 8.372C1290.32 687.725 1286.572 683.977 1286.572 679.354zM1320.057 679.354c0-4.623 3.748-8.371 8.371-8.371s8.371 3.748 8.371 8.371c0 4.624-3.748 8.372-8.371 8.372S1320.057 683.977 1320.057 679.354zM1119.143 715.25c0-4.623 3.748-8.371 8.371-8.371 4.623 0 8.371 3.748 8.371 8.371 0 4.623-3.748 8.372-8.371 8.372C1122.891 723.622 1119.143 719.874 1119.143 715.25zM1152.629 715.25c0-4.623 3.748-8.371 8.371-8.371s8.371 3.748 8.371 8.371c0 4.623-3.748 8.372-8.371 8.372S1152.629 719.874 1152.629 715.25zM1186.115 715.25c0-4.623 3.748-8.371 8.371-8.371 4.624 0 8.372 3.748 8.372 8.371 0 4.623-3.748 8.372-8.372 8.372C1189.863 723.622 1186.115 719.874 1186.115 715.25zM1219.6 715.25c0-4.623 3.748-8.371 8.371-8.371 4.623 0 8.371 3.748 8.371 8.371 0 4.623-3.748 8.372-8.371 8.372C1223.348 723.622 1219.6 719.874 1219.6 715.25zM1253.086 715.25c0-4.623 3.748-8.371 8.371-8.371s8.371 3.748 8.371 8.371c0 4.623-3.748 8.372-8.371 8.372S1253.086 719.874 1253.086 715.25zM1286.572 715.25c0-4.623 3.748-8.371 8.371-8.371 4.623 0 8.371 3.748 8.371 8.371 0 4.623-3.748 8.372-8.371 8.372C1290.32 723.622 1286.572 719.874 1286.572 715.25zM1320.057 715.25c0-4.623 3.748-8.371 8.371-8.371s8.371 3.748 8.371 8.371c0 4.623-3.748 8.372-8.371 8.372S1320.057 719.874 1320.057 715.25z"/><path fill="#E6E6E6" d="M1169.512,254.714H142.332c-23.707,23.707-36.999,36.999-60.706,60.706v228.751
	c23.707,23.707,36.999,36.999,60.706,60.706h186.666L303.62,652.74c0,0,96.026,60.537,96.744,63.409
	c0.495,1.979-27.557,26.016-45.05,40.772c-2.795,2.358-0.251,6.834,3.209,5.647l111.622-44.385l-60.548-63.586l92.68-49.722h667.235
	c23.707-23.707,36.999-36.999,60.706-60.706V315.42C1206.51,291.713,1193.219,278.421,1169.512,254.714z"/><path fill="#A58AFF" d="M1182.358,270.605H155.178c-23.707,23.707-36.999,36.999-60.706,60.706v228.751
	c23.707,23.707,36.999,36.999,60.706,60.706h186.666l-25.377,47.864c0,0,96.026,60.537,96.744,63.409
	c0.495,1.979-27.557,26.016-45.05,40.773c-2.795,2.358-0.251,6.834,3.209,5.647l111.622-44.385l-60.548-63.586l92.68-49.722h667.235
	c23.707-23.707,36.999-36.999,60.706-60.706V331.311C1219.357,307.604,1206.065,294.312,1182.358,270.605z"/><path d="M425.852,789.118c-2.678,0-5.187-1.415-6.589-3.89c-1.839-3.247-1.13-7.195,1.724-9.599
	c24.903-20.977,38.021-32.728,43.053-37.769c-12.737-9.214-61.558-40.444-92.738-60.101l-3.687-2.324l15.353-28.958H181.221
	l-63.456-63.457V350.379l63.456-63.457h1031.073l63.456,63.457V583.02l-63.456,63.457H544.913l-61.708,34.029l57.992,69.468
	l-112.804,38.714C427.548,788.978,426.692,789.118,425.852,789.118z M379.995,672.139c7.661,4.843,26.122,16.536,44.453,28.323
	c49.758,31.993,50.04,33.121,50.658,35.593c0.868,3.476,1.255,5.017-40.9,40.706l91.034-31.242l-56.547-67.737l73.802-40.698
	h665.907l57.954-57.955V354.27l-57.954-57.954H185.113l-57.954,57.954v224.859l57.954,57.955h213.468L379.995,672.139z"/><path fill="#FFF" d="M159.396 385.809h38.426l13.834 73.295 20.248-73.295h38.289l20.297 73.197 13.849-73.197h38.226l-28.86 130.924h-39.673l-22.963-82.431-22.873 82.431h-39.672L159.396 385.809zM355.694 385.809h108.418v27.954h-67.873v20.808h62.962v26.703h-62.962v25.81h69.838v29.65H355.694V385.809zM487.868 385.809h40.456v98.685h63.14v32.24H487.868V385.809zM693.9 463.15l35.455 10.716c-2.382 9.944-6.133 18.25-11.253 24.917-5.121 6.668-11.475 11.699-19.067 15.093-7.591 3.393-17.251 5.09-28.98 5.09-14.231 0-25.854-2.068-34.874-6.203-9.02-4.134-16.805-11.407-23.354-21.82-6.55-10.413-9.823-23.74-9.823-39.984 0-21.657 5.76-38.302 17.28-49.934 11.521-11.632 27.819-17.448 48.895-17.448 16.491 0 29.456 3.335 38.894 10.003 9.436 6.668 16.447 16.909 21.031 30.722l-35.723 7.948c-1.25-3.988-2.561-6.906-3.929-8.752-2.263-3.095-5.031-5.477-8.305-7.145-3.275-1.666-6.936-2.5-10.985-2.5-9.169 0-16.195 3.688-21.076 11.062-3.692 5.471-5.537 14.064-5.537 25.777 0 14.511 2.202 24.458 6.608 29.838 4.406 5.382 10.598 8.072 18.576 8.072 7.74 0 13.589-2.173 17.549-6.519C689.24 477.738 692.113 471.426 693.9 463.15zM743.911 451.361c0-21.374 5.953-38.014 17.861-49.922 11.908-11.907 28.489-17.861 49.745-17.861 21.791 0 38.581 5.849 50.369 17.548 11.788 11.7 17.683 28.087 17.683 49.164 0 15.302-2.577 27.85-7.725 37.643-5.151 9.795-12.593 17.415-22.327 22.863-9.734 5.448-21.866 8.172-36.393 8.172-14.767 0-26.986-2.352-36.66-7.055-9.676-4.703-17.52-12.146-23.533-22.327C746.917 479.404 743.911 466.663 743.911 451.361zM784.368 451.54c0 13.217 2.456 22.715 7.368 28.489 4.912 5.776 11.595 8.663 20.05 8.663 8.692 0 15.419-2.827 20.184-8.484 4.762-5.656 7.144-15.808 7.144-30.454 0-12.324-2.487-21.329-7.457-27.015-4.972-5.685-11.715-8.529-20.228-8.529-8.158 0-14.707 2.888-19.647 8.663C786.837 428.648 784.368 438.204 784.368 451.54zM900.914 385.809h53.205l20.518 79.662 20.372-79.662h53.173v130.924h-33.134v-99.845l-25.529 99.845h-29.991l-25.482-99.845v99.845h-33.133V385.809zM1073.902 385.809h108.418v27.954h-67.873v20.808h62.962v26.703h-62.962v25.81h69.838v29.65h-110.383V385.809z"/><path d="M186.772 231.051c-1.745 0-3.422-.977-4.232-2.654L118.233 95.351c-1.128-2.336-.151-5.144 2.185-6.273 2.334-1.126 5.144-.151 6.273 2.185l64.308 133.046c1.128 2.336.151 5.144-2.186 6.273C188.155 230.901 187.458 231.051 186.772 231.051zM214.526 854.176c-.661 0-1.33-.14-1.969-.435-2.355-1.089-3.38-3.881-2.29-6.235l62.05-134.114c1.091-2.355 3.881-3.38 6.235-2.291 2.355 1.089 3.38 3.881 2.29 6.235l-62.05 134.114C217.998 853.166 216.3 854.176 214.526 854.176zM117.36 244.933c-1.202 0-2.405-.459-3.321-1.376l-44.551-44.55c-1.835-1.834-1.835-4.809 0-6.643 1.833-1.834 4.809-1.834 6.642 0l44.551 44.55c1.835 1.834 1.835 4.809 0 6.643C119.765 244.474 118.562 244.933 117.36 244.933zM1193.152 230.901c-.608 0-1.225-.118-1.82-.369-2.391-1.007-3.514-3.761-2.507-6.152l24.452-58.065c1.007-2.391 3.76-3.513 6.151-2.506 2.391 1.007 3.514 3.761 2.506 6.152l-24.452 58.065C1196.727 229.822 1194.985 230.901 1193.152 230.901zM983.423 824.842c-1.962 0-3.793-1.24-4.452-3.204l-20.042-59.731c-.825-2.46.499-5.122 2.959-5.947 2.457-.824 5.121.499 5.948 2.959l20.042 59.731c.825 2.459-.499 5.122-2.959 5.947C984.423 824.763 983.918 824.842 983.423 824.842z"/><path fill="#FF91DA" d="M256.184 232.965c-.53 0-1.059-.202-1.464-.607l-16.937-16.937 17.242-17.243c.809-.808 2.119-.808 2.927 0 .809.808.809 2.119 0 2.927l-14.315 14.316 14.01 14.01c.809.808.809 2.119 0 2.927C257.243 232.763 256.714 232.965 256.184 232.965zM281.941 232.965c-.53 0-1.059-.202-1.464-.607l-16.938-16.937 17.242-17.243c.808-.808 2.119-.808 2.927 0 .809.808.809 2.119 0 2.927l-14.315 14.316 14.011 14.01c.809.808.809 2.119 0 2.927C283 232.763 282.471 232.965 281.941 232.965zM307.697 232.965c-.53 0-1.059-.202-1.464-.607l-16.937-16.937 17.243-17.243c.809-.808 2.118-.808 2.927 0 .809.808.809 2.119 0 2.927l-14.315 14.316 14.01 14.01c.809.808.809 2.119 0 2.927C308.756 232.763 308.227 232.965 307.697 232.965zM333.453 232.965c-.53 0-1.059-.202-1.464-.607l-16.937-16.937 17.242-17.243c.808-.808 2.119-.808 2.927 0 .809.808.809 2.119 0 2.927l-14.315 14.316 14.01 14.01c.809.808.809 2.119 0 2.927C334.512 232.763 333.983 232.965 333.453 232.965zM359.209 232.965c-.53 0-1.059-.202-1.464-.607l-16.937-16.937 17.242-17.243c.809-.808 2.119-.808 2.927 0 .809.808.809 2.119 0 2.927l-14.315 14.316 14.01 14.01c.809.808.809 2.119 0 2.927C360.268 232.763 359.739 232.965 359.209 232.965zM384.966 232.965c-.53 0-1.059-.202-1.464-.607l-16.938-16.937 17.242-17.243c.809-.808 2.119-.808 2.927 0 .809.808.809 2.119 0 2.927l-14.315 14.316 14.011 14.01c.809.808.809 2.119 0 2.927C386.025 232.763 385.496 232.965 384.966 232.965zM410.722 232.965c-.53 0-1.059-.202-1.464-.607l-16.938-16.937 17.243-17.243c.809-.808 2.119-.808 2.927 0 .809.808.809 2.119 0 2.927l-14.316 14.316 14.011 14.01c.809.808.809 2.119 0 2.927C411.781 232.763 411.252 232.965 410.722 232.965zM436.478 232.965c-.53 0-1.059-.202-1.464-.607l-16.937-16.937 17.242-17.243c.809-.808 2.118-.808 2.927 0 .809.808.809 2.119 0 2.927l-14.315 14.316 14.01 14.01c.809.808.809 2.119 0 2.927C437.537 232.763 437.008 232.965 436.478 232.965zM462.234 232.965c-.53 0-1.059-.202-1.464-.607l-16.937-16.937 17.242-17.243c.809-.808 2.119-.808 2.927 0 .809.808.809 2.119 0 2.927l-14.315 14.316 14.01 14.01c.809.808.809 2.119 0 2.927C463.293 232.763 462.764 232.965 462.234 232.965zM487.99 232.965c-.53 0-1.059-.202-1.464-.607l-16.937-16.937 17.242-17.243c.809-.808 2.119-.808 2.927 0 .809.808.809 2.119 0 2.927l-14.315 14.316 14.01 14.01c.809.808.809 2.119 0 2.927C489.049 232.763 488.52 232.965 487.99 232.965zM514.224 232.965c-.53 0-1.059-.202-1.464-.607l-16.937-16.937 17.242-17.243c.809-.808 2.119-.808 2.927 0 .809.808.809 2.119 0 2.927l-14.315 14.316 14.01 14.01c.808.808.808 2.119 0 2.927C515.283 232.763 514.754 232.965 514.224 232.965zM539.98 232.965c-.53 0-1.059-.202-1.464-.607l-16.937-16.937 17.242-17.243c.809-.808 2.119-.808 2.927 0 .808.808.808 2.119 0 2.927l-14.315 14.316 14.01 14.01c.809.808.809 2.119 0 2.927C541.04 232.763 540.51 232.965 539.98 232.965zM565.736 232.965c-.53 0-1.059-.202-1.464-.607l-16.937-16.937 17.242-17.243c.809-.808 2.118-.808 2.927 0 .809.808.809 2.119 0 2.927l-14.315 14.316 14.01 14.01c.809.808.809 2.119 0 2.927C566.795 232.763 566.266 232.965 565.736 232.965zM591.493 232.965c-.53 0-1.059-.202-1.464-.607l-16.938-16.937 17.242-17.243c.809-.808 2.119-.808 2.927 0 .809.808.809 2.119 0 2.927l-14.315 14.316 14.011 14.01c.809.808.809 2.119 0 2.927C592.553 232.763 592.023 232.965 591.493 232.965zM617.249 232.965c-.53 0-1.059-.202-1.464-.607l-16.937-16.937 17.242-17.243c.809-.808 2.119-.808 2.927 0 .809.808.809 2.119 0 2.927l-14.315 14.316 14.01 14.01c.809.808.809 2.119 0 2.927C618.308 232.763 617.779 232.965 617.249 232.965zM643.005 232.965c-.53 0-1.059-.202-1.464-.607l-16.937-16.937 17.242-17.243c.809-.808 2.119-.808 2.927 0 .809.808.809 2.119 0 2.927l-14.315 14.316 14.01 14.01c.808.808.808 2.119 0 2.927C644.064 232.763 643.535 232.965 643.005 232.965zM668.761 232.965c-.53 0-1.059-.202-1.464-.607l-16.937-16.937 17.242-17.243c.809-.808 2.119-.808 2.927 0 .808.808.808 2.119 0 2.927l-14.315 14.316 14.01 14.01c.809.808.809 2.119 0 2.927C669.821 232.763 669.291 232.965 668.761 232.965zM694.518 232.965c-.53 0-1.059-.202-1.464-.607l-16.938-16.937 17.243-17.243c.809-.808 2.118-.808 2.927 0 .809.808.809 2.119 0 2.927l-14.315 14.316 14.011 14.01c.808.808.808 2.119 0 2.927C695.577 232.763 695.048 232.965 694.518 232.965zM720.274 232.965c-.53 0-1.059-.202-1.464-.607l-16.938-16.937 17.243-17.243c.809-.808 2.119-.808 2.927 0 .808.808.808 2.119 0 2.927l-14.316 14.316 14.011 14.01c.809.808.809 2.119 0 2.927C721.334 232.763 720.804 232.965 720.274 232.965zM746.03 232.965c-.53 0-1.059-.202-1.464-.607l-16.937-16.937 17.242-17.243c.809-.808 2.119-.808 2.927 0 .809.808.809 2.119 0 2.927l-14.315 14.316 14.01 14.01c.809.808.809 2.119 0 2.927C747.089 232.763 746.56 232.965 746.03 232.965zM913.285 194.141c-.794 0-1.589-.303-2.195-.909-1.213-1.213-1.213-3.179 0-4.391l16.199-16.2c4.411-4.41 11.59-4.412 16.001 0l13.501 13.5c1.991 1.99 5.228 1.99 7.219.001l13.703-13.703c4.413-4.412 11.592-4.411 16.001.001l13.77 13.77c1.991 1.991 5.229 1.989 7.22 0l13.095-13.095c4.412-4.413 11.59-4.411 16 0l11.071 11.07c1.991 1.99 5.228 1.99 7.219 0l8.344-8.546c7.264-7.264 16.884-6.999 24.533.648l.245.276 9.719 12.352c1.06 1.347.828 3.3-.519 4.36-1.348 1.059-3.301.827-4.36-.521l-9.601-12.202c-3.103-3.049-9.143-7.007-15.599-.55l-8.344 8.546c-4.436 4.438-11.615 4.439-16.026.026l-11.071-11.07c-1.991-1.99-5.228-1.99-7.219-.001l-13.095 13.095c-4.411 4.412-11.59 4.411-16.001 0l-13.769-13.77c-1.992-1.991-5.23-1.99-7.22 0l-13.703 13.703c-4.412 4.41-11.59 4.411-16 0l-13.501-13.5c-1.99-1.99-5.228-1.991-7.22 0l-16.199 16.2C914.874 193.838 914.08 194.141 913.285 194.141z"/><path d="M799.85,147.498c-0.794,0-1.589-0.303-2.195-0.91c-1.213-1.212-1.213-3.178,0-4.391l16.2-16.2
	c2.137-2.137,4.978-3.314,8-3.314c3.023,0,5.864,1.177,8.001,3.314l13.5,13.5c1.991,1.991,5.229,1.992,7.22,0.001l13.702-13.703
	c4.411-4.411,11.59-4.412,16.001,0l13.77,13.77c1.991,1.99,5.228,1.99,7.219,0l13.095-13.095c4.412-4.412,11.591-4.411,16.001,0.001
	l11.07,11.07c1.991,1.991,5.229,1.989,7.22,0l8.344-8.546c3.688-3.688,7.981-5.507,12.43-5.292
	c4.237,0.206,8.423,2.261,12.102,5.941l0.245,0.275l9.72,12.353c1.06,1.347,0.828,3.3-0.519,4.36c-1.348,1.06-3.301,0.827-4.36-0.52
	l-9.602-12.202c-2.535-2.493-5.259-3.876-7.887-4.004c-2.672-0.125-5.287,1.032-7.711,3.454l-8.344,8.546
	c-4.436,4.44-11.616,4.439-16.028,0.026l-11.07-11.07c-0.964-0.964-2.246-1.495-3.609-1.495c-1.365,0-2.646,0.531-3.61,1.495
	l-13.095,13.095c-4.412,4.41-11.59,4.411-16-0.001l-13.771-13.77c-0.964-0.964-2.246-1.495-3.61-1.495
	c-1.364,0-2.645,0.531-3.609,1.495l-13.702,13.703c-2.137,2.137-4.978,3.314-8.001,3.314c-3.022,0-5.864-1.177-8-3.314l-13.501-13.5
	c-0.964-0.965-2.246-1.495-3.609-1.495s-2.645,0.531-3.609,1.495l-16.2,16.201C801.439,147.195,800.644,147.498,799.85,147.498z"/><path fill="#FF91DA" d="M681.022,871.39c-0.794,0-1.589-0.303-2.195-0.91c-1.213-1.212-1.213-3.178,0-4.391l16.2-16.2
	c4.412-4.412,11.591-4.411,16.001,0.001l13.5,13.5c0.964,0.964,2.246,1.495,3.609,1.495c1.364,0,2.646-0.531,3.61-1.495
	l13.703-13.703c2.136-2.137,4.977-3.314,8-3.314c3.022,0,5.863,1.177,8,3.314l13.771,13.77c1.991,1.99,5.228,1.99,7.219,0
	l13.095-13.095c4.413-4.412,11.592-4.411,16.001,0l11.07,11.07c1.991,1.991,5.229,1.989,7.22,0l8.344-8.546
	c3.687-3.688,7.977-5.511,12.43-5.292c4.237,0.207,8.423,2.261,12.102,5.941l0.245,0.275l9.72,12.353
	c1.06,1.347,0.828,3.3-0.519,4.36c-1.348,1.06-3.301,0.827-4.36-0.52l-9.602-12.202c-2.535-2.492-5.259-3.876-7.887-4.004
	c-2.675-0.125-5.287,1.031-7.711,3.454l-8.344,8.546c-4.436,4.439-11.616,4.439-16.028,0.026l-11.07-11.07
	c-1.99-1.989-5.228-1.991-7.22,0l-13.095,13.095c-4.412,4.41-11.59,4.411-16,0l-13.771-13.77c-0.964-0.964-2.246-1.495-3.609-1.495
	s-2.645,0.531-3.608,1.495l-13.704,13.703c-4.41,4.412-11.589,4.413-16.001,0l-13.5-13.5c-1.992-1.992-5.23-1.99-7.22,0l-16.2,16.2
	C682.61,871.087,681.816,871.39,681.022,871.39z"/><path d="M617.659,801.826c-0.795,0-1.589-0.303-2.195-0.909c-1.213-1.213-1.213-3.179,0-4.391l16.199-16.2
	c4.41-4.411,11.589-4.412,16.001,0l13.5,13.5c1.991,1.99,5.229,1.989,7.22,0l13.703-13.703c4.411-4.411,11.59-4.411,16.001-0.001
	l13.77,13.771c1.991,1.99,5.229,1.989,7.22,0l13.095-13.095c4.411-4.412,11.589-4.412,16,0l11.071,11.07
	c1.991,1.99,5.228,1.99,7.219,0l8.344-8.546c3.688-3.689,8.005-5.511,12.43-5.292c4.238,0.206,8.423,2.26,12.102,5.941l0.245,0.275
	l9.72,12.352c1.06,1.348,0.828,3.3-0.52,4.36c-1.347,1.06-3.3,0.827-4.36-0.52l-9.602-12.202c-2.535-2.492-5.259-3.876-7.887-4.004
	c-2.685-0.126-5.287,1.031-7.711,3.454l-8.344,8.546c-4.436,4.437-11.615,4.439-16.026,0.026l-11.071-11.07
	c-0.964-0.964-2.246-1.495-3.609-1.495c-1.364,0-2.645,0.531-3.609,1.495l-13.095,13.095c-4.41,4.412-11.589,4.413-16.001,0
	l-13.769-13.77c-1.992-1.991-5.23-1.989-7.22,0l-13.703,13.702c-4.41,4.411-11.589,4.413-16.001,0l-13.5-13.5
	c-1.993-1.992-5.231-1.99-7.22,0l-16.199,16.2C619.248,801.522,618.454,801.826,617.659,801.826z"/><circle cx="815.747" cy="208.62" r="17.584" fill="#FFEC9E" transform="rotate(-22.5 815.708 208.614)"/><circle cx="1137.826" cy="782.421" r="17.584" fill="#FFEC9E"/><circle cx="122.462" cy="738.202" r="12.434" fill="#FFEC9E" transform="rotate(-76.714 122.492 738.253)"/><circle cx="770.231" cy="715.25" r="12.434" fill="#FFEC9E" transform="rotate(-76.714 770.307 715.28)"/><circle cx="1254.185" cy="251.248" r="12.434" fill="#FFEC9E"/><circle cx="542.355" cy="147.498" r="12.434" fill="#FFEC9E"/><polygon fill="#FF91DA" points="363.413 130.85 384.814 152.635 355.248 160.276"/><polygon fill="#FF91DA" points="57.281 435.382 27.2 440.643 37.685 411.961"/><polygon fill="#FF91DA" points="365.314 842.739 341.122 861.375 337.079 831.107"/><polygon fill="#FF91DA" points="1275.575 816.642 1251.384 835.278 1247.339 805.01"/><polygon fill="#FF91DA" points="208.731 716.633 180.428 728.101 184.648 697.856"/></svg>