<svg xmlns="http://www.w3.org/2000/svg" enable-background="new 0 0 70 70" viewBox="0 0 70 70"><circle cx="40.914" cy="40.213" r="25.44" fill="#edf8fe"/><circle cx="21.632" cy="48.753" r="17.587" fill="#edf8fe"/><circle cx="24.017" cy="24.212" r="20.371" fill="#edf8fe"/><circle cx="48.767" cy="20.898" r="17.587" fill="#edf8fe"/><path fill="#9bb8cf" d="M49.78996,16.43467V26.532h-2.49578v-5.70931l-1.49026-1.25283c-0.40243-0.33831-0.58198-0.84471-0.59898-1.37018c-0.01647-0.50901-0.19282-0.98595-0.47992-1.38169c-0.30994-0.41597-0.74224-0.72586-1.25608-0.88899c-5.24441-1.60679-10.43988-1.64756-15.57009-0.01633c-1.01952,0.3181-1.71282,1.27236-1.71282,2.34081v0.27733c0,0.58722-0.29361,1.12556-0.79112,1.43549l-1.68833,1.06029v6.22316h-2.21034v-8.74503c0-1.39451,0.50677-2.7415,1.42597-3.79019l2.71738-3.10018c0.54645-0.61171,0.89716-1.39467,0.91349-2.21029c0.01633-0.44046-0.0571-0.88904-0.30994-1.22342c0,0,2.34081-1.09295,4.8937-0.45674V4.94261c0,0,5.98664,0.10603,8.00119,4.20861l1.8107-1.32946l5.86428,5.63589c0.82378,0,1.56597,0.33443,2.10426,0.87271C49.45557,14.8687,49.78996,15.61905,49.78996,16.43467z"/><path fill="#b1c6d6" d="M34.15979,5.44542c-0.90849,0.57501-1.49501,1.02353-1.49501,1.02353v2.78303c-2.55308-0.6325-4.89909,0.46004-4.89909,0.46004c0.25297,0.33348,0.33348,0.782,0.31053,1.21902c-0.01151,0.81654-0.36802,1.59854-0.90856,2.20802l-2.71403,3.10506c-0.92,1.04656-1.42601,2.39206-1.42601,3.78361v7.22208h-1.52954v-8.74011c0-1.40306,0.50601-2.74856,1.42601-3.79512l2.7141-3.10499c0.55199-0.60954,0.89698-1.39155,0.92-2.20809c0.01151-0.43701-0.05749-0.88547-0.31053-1.21902c0,0,2.33457-1.09246,4.88758-0.45997v-2.7831C31.13523,4.93941,32.50376,4.96243,34.15979,5.44542z"/><path fill="#fde1d9" d="M39.64368,39.48804v4.77139c0,0.42408-0.06521,0.83189-0.17941,1.21526c-0.52201,1.70461-2.10431,2.94436-3.98021,2.94436c-1.14188,0-2.18584-0.46491-2.94436-1.22343c-0.47307-0.47307-0.83194-1.06029-1.03585-1.72094c-0.1142-0.38337-0.17941-0.79118-0.17941-1.21526v-4.77139H39.64368z"/><rect width="8.326" height="3.864" x="31.319" y="39.486" fill="#f1d1c9"/><path fill="#fde1d9" d="M47.29417,20.82269v8.71483c0,6.50865-5.27701,11.79383-11.79378,11.79383c-6.50865,0-11.79383-5.28518-11.79383-11.79383v-8.51092l1.68833-1.06029c0.49751-0.30994,0.79112-0.84827,0.79112-1.43549v-0.27733c0-1.06846,0.6933-2.02271,1.71282-2.34081c5.13021-1.63123,10.32568-1.59046,15.57009,0.01633c0.51384,0.16313,0.94614,0.47302,1.25608,0.88899c0.30177,0.41597,0.48119,0.92165,0.48119,1.45999c0,0.49751,0.22023,0.97058,0.60355,1.2968L47.29417,20.82269z"/><path fill="#f1d1c9" d="M43.38296 16.46262c0-.19548-.02302-.39097-.08051-.57501.05749.01151.10346.03453.16102.04598.51745.16102.95447.47155 1.26499.88554.29902.41399.48299.92.48299 1.46055 0 .207.03453.40248.11504.59803l-1.33406-1.12707C43.60147 17.42867 43.38296 16.95712 43.38296 16.46262zM47.29298 20.82117v8.71716c0 6.50914-5.27855 11.78769-11.78769 11.78769-3.70303 0-7.0266-1.71352-9.17712-4.39308 2.01253 1.61005 4.56554 2.57603 7.34864 2.57603 6.52058 0 11.7992-5.27855 11.7992-11.78769v-8.55607c.08044.14944.19548.29895.33348.41399L47.29298 20.82117zM45.47601 19.00419v.16102c-.069-.09202-.11504-.18404-.14951-.2875L45.47601 19.00419z"/><path fill="#fff" d="M39.50561,33.64825c0,2.17039-1.75272,3.92311-3.92307,3.92311h-0.16431c-2.17039,0-3.92311-1.75272-3.92311-3.92311H39.50561z"/><path fill="#fde1d9" d="M20.68989 25.83464c0 .79157.31788 1.50208.83521 2.01941.51729.51733 1.22784.83521 2.01317.83521h.1683v-5.70923h-.1683C21.9676 22.98002 20.68989 24.25777 20.68989 25.83464zM50.31084 25.83464c0 .79157-.31787 1.50208-.83521 2.01941-.51729.51733-1.22784.83521-2.01317.83521h-.1683v-5.70923h.1683C49.03313 22.98002 50.31084 24.25777 50.31084 25.83464z"/><path fill="#f4abab" d="M55.17692,45.35006v17.29868c0,1.10457-0.89543,2-2,2H17.78776c-1.10457,0-2-0.89544-2-2V45.35006c0-1.10457,0.89543-2,2-2h35.38917C54.28149,43.35006,55.17692,44.24549,55.17692,45.35006z"/><path fill="#f5928f" d="M55.17584,45.35369v17.29004c0,1.10457-0.89543,2-2,2H17.78582c-1.10457,0-2-0.89544-2-2v-1.23999h18.08998c9.96875,0,18.05003-8.08127,18.05003-18.05003v-0.00002h1.25C54.28041,43.35369,55.17584,44.24913,55.17584,45.35369z"/><path fill="#f1d1c9" d="M18.56796,54.00372c0,2.27002-1.84998,4.12-4.12,4.12h-1.09998c-1.10004,0-2-0.89001-2-2v-4.25c0-1.09998,0.89996-2,2-2h1.09998C16.71799,49.87371,18.56796,51.72375,18.56796,54.00372z"/><path fill="#fde1d9" d="M14.94796,58.09375c-0.15997,0.01996-0.33002,0.02997-0.5,0.02997h-1.09998c-1.10004,0-2-0.89001-2-2v-4.25c0-1.09998,0.89996-2,2-2h1.09998c0.16998,0,0.34003,0.01001,0.5,0.03003c-0.94,0.15997-1.65997,0.98999-1.65997,1.96997v4.25C13.28799,57.1137,14.00796,57.93371,14.94796,58.09375z"/><path fill="#f1d1c9" d="M52.39672,54.00372c0,2.27002,1.84998,4.12,4.12,4.12h1.09998c1.10004,0,2-0.89001,2-2v-4.25c0-1.09998-0.89996-2-2-2h-1.09998C54.2467,49.87371,52.39672,51.72375,52.39672,54.00372z"/><path fill="#fde1d9" d="M56.01672,58.09375c0.15997,0.01996,0.33002,0.02997,0.5,0.02997h1.09998c1.10004,0,2-0.89001,2-2v-4.25c0-1.09998-0.89996-2-2-2h-1.09998c-0.16998,0-0.34003,0.01001-0.5,0.03003c0.94,0.15997,1.65997,0.98999,1.65997,1.96997v4.25C57.67669,57.1137,56.95672,57.93371,56.01672,58.09375z"/><path fill="#63809e" d="M39.92153 26.5075c0 .67694.54645 1.22339 1.22345 1.22339.67688 0 1.22339-.54645 1.22339-1.22339s-.54651-1.22345-1.22339-1.22345C40.46798 25.28405 39.92153 25.83056 39.92153 26.5075zM43.48336 25.03521c.09375.15723.25977.24414.43018.24414.08691 0 .17529-.02246.25537-.07031.2373-.1416.31494-.44824.17383-.68555-1.54932-2.59863-5.1333-1.82617-5.28369-1.79004C38.79 22.794 38.62106 23.0606 38.6816 23.33013c.05957.26855.32666.43555.59619.37891C39.30758 23.70123 42.30807 23.06256 43.48336 25.03521zM29.85579 25.28405c-.67694 0-1.22345.54651-1.22345 1.22345s.54651 1.22339 1.22345 1.22339 1.22339-.54645 1.22339-1.22339S30.53274 25.28405 29.85579 25.28405zM31.94185 22.73345c-.15137-.03516-3.73389-.80859-5.28369 1.79004-.1416.2373-.06396.54395.17334.68555.08008.04785.16846.07031.25537.07031.17041 0 .33643-.08691.42969-.24414 1.17725-1.97363 4.17578-1.33301 4.20654-1.32617.271.05762.53613-.11035.59619-.37891C32.37984 23.0606 32.2109 22.794 31.94185 22.73345zM30.9938 33.64953c0 2.44 1.98999 4.41998 4.41998 4.41998h.16998c2.44 0 4.42004-1.97998 4.42004-4.41998 0-.27997-.22003-.5-.5-.5H31.4938C31.21377 33.14953 30.9938 33.36956 30.9938 33.64953zM38.97378 34.14953c-.25 1.65002-1.66998 2.91998-3.39001 2.91998h-.16998c-1.70996 0-3.14001-1.26996-3.38-2.91998H38.97378z"/><path fill="#63809e" d="M23.20382 29.16955c.00092.00006.00177.00012.00269.00018v.36743c0 1.38184.22803 2.7373.67773 4.03125l.94434-.32813c-.4126-1.1875-.62207-2.43359-.62207-3.70312V23.5733v-2.27051l1.45459-.91309-.00024-.00043c.64197-.40063 1.02515-1.09503 1.02515-1.85895v-.27637c0-.85645.55371-1.60742 1.37695-1.86914.7168-.22656 1.43945-.42285 2.14697-.58105l-.21875-.97656c-.73584.16602-1.48584.36914-2.23047.60449-1.24072.39453-2.07471 1.52832-2.07471 2.82227v.27637c0 .41699-.20752.79492-.55713 1.01172l-1.68848 1.06055c-.14551.0918-.23389.25195-.23389.42383v1.4729c-.00092.00006-.00177.00012-.00269.00018-.4292.03998-.83838.16974-1.20776.35913v-4.3537c0-4.14777 4.98855-5.7106 5.05664-9.08203.01318-.3623-.02637-.6875-.11816-.97266.7749-.2627 2.38232-.66504 4.08154-.24121.14746.03613.30762.00391.42871-.0918.12109-.09473.19189-.23926.19189-.39356V5.47662c1.43848.13379 5.5249.78418 7.05274 3.89551.06494.13281.18604.22949.32959.26465.14551.03613.29688.00586.41504-.08203l1.47168-1.08105c.15094.08622 2.0303 2.53937 4.98975 1.36426l-.36914-.92969c-1.16992.46777-2.51416.20313-3.42236-.66992l-.80908-.77734c-.17529-.16895-.44678-.18555-.64209-.04297l-1.35156.99316c-2.33447-3.82031-7.90967-3.96387-8.15576-3.96875-.13525-.02637-.26367.04883-.35938.14355-.0957.09375-.14941.22266-.14941.35645v2.1709c-2.43604-.38184-4.51074.56934-4.60498.61426-.13672.06348-.23779.18652-.27393.33301-.03613.14648-.00439.30176.08691.42188.19043.25195.21875.63086.2085.91211-.05511 2.77576-5.05713 4.51796-5.05713 9.11035v5.16235c-.00067.00079-.00159.00146-.00226.00226-.5.57996-.79999 1.33997-.79999 2.16998 0 .89001.33997 1.73999.97998 2.37C21.72378 28.75952 22.4338 29.09954 23.20382 29.16955zM23.20382 23.49951v4.67004c-.5-.07001-.96002-.29999-1.33002-.67004-.44-.44-.67999-1.02997-.67999-1.65997C21.19381 24.64953 22.0638 23.66955 23.20382 23.49951zM35.64303 31.45709c.54346 0 1.0874-.09277 1.62695-.27734.26123-.08887.40088-.37305.31152-.63477-.08887-.26074-.37256-.40039-.63477-.31055-.87695.29883-1.73047.29883-2.60742 0-.26074-.08887-.5459.0498-.63477.31055-.08936.26172.05029.5459.31152.63477C34.55563 31.36431 35.09957 31.45709 35.64303 31.45709z"/><path fill="#63809e" d="M47.50973,42.84966h-7.36621v-1.93567c4.48248-1.83612,7.65088-6.24066,7.65088-11.37683v-0.36774c0.76984-0.07025,1.47949-0.41003,2.02942-0.9599c0.63995-0.63,0.98999-1.47998,0.98999-2.37c0-0.65997-0.19-1.27002-0.52002-1.78998c-0.0011-0.00177-0.00269-0.00311-0.00378-0.00488v-7.61005c0-1.8135-1.41498-3.36199-3.26953-3.4707l-1.68604-1.62109l-0.69336,0.7207c1.84743,1.71362,1.81942,1.89453,2.17188,1.89453c1.38038,0,2.47705,1.12366,2.47705,2.47656v6.59302c-0.43903-0.28845-0.9375-0.47797-1.49561-0.52802v-1.67731c0-0.14746-0.06543-0.28809-0.17822-0.38281l-1.49072-1.25293c-0.32959-0.27637-0.41064-0.69824-0.4209-1.00391c-0.01904-0.59277-0.21777-1.16602-0.57861-1.66309c-0.37646-0.50488-0.89746-0.87402-1.51074-1.06934c-3.83301-1.17383-7.6665-1.51855-11.38818-1.02246l0.13184,0.99219c3.58008-0.47949,7.26904-0.14551,10.9585,0.98535c0.4082,0.12988,0.75635,0.37598,1.00293,0.70703c0.23926,0.3291,0.37207,0.71094,0.38525,1.10352c0.02295,0.71875,0.29883,1.33496,0.77637,1.73633l0.00635,0.00531l-0.00049,0.00055l1.30664,1.09766v1.42383h-0.00061v6.70996h0.00061v0.34766c0,6.22754-5.06641,11.29394-11.29395,11.29394c-4.16504,0-7.97949-2.2832-9.95508-5.95898l-0.88086,0.47266c1.37531,2.55884,3.57123,4.49323,6.16016,5.55853v1.94635h-2.64111c-2.46826,0-4.83838-0.75098-6.85449-2.17188l-0.57617,0.81641c2.18555,1.54102,4.75488,2.35547,7.43066,2.35547h19.32617V42.84966z M47.7944,23.85455v-0.35492c1.13983,0.17023,2.01941,1.15015,2.01941,2.3399c0,0.63-0.25,1.21997-0.69,1.65997c-0.36981,0.36987-0.82959,0.59967-1.32941,0.66992V23.85455z M39.14352,42.84966h-7.31885v-1.58685c1.17261,0.36743,2.40802,0.5683,3.67578,0.5683c1.26788,0,2.49139-0.1933,3.64307-0.55133V42.84966z"/><rect width="15.94" height="1" x="28.916" y="64.144" fill="#63809e"/><path fill="#63809e" d="M16.28377,62.63952v-4.39996c1.63-0.71002,2.78003-2.34003,2.78003-4.24005c0-1.89996-1.15002-3.52997-2.78003-4.23999v-4.40997c0-0.82001,0.67004-1.5,1.5-1.5h2.63v-1h-2.63c-1.38,0-2.5,1.13-2.5,2.5v4.09998c-0.26996-0.04999-0.54999-0.07996-0.83997-0.07996h-1.10004c-1.37,0-2.5,1.12994-2.5,2.5v4.25c0,1.37994,1.13,2.5,2.5,2.5h1.10004c0.28998,0,0.57001-0.03003,0.83997-0.08002v4.09998c0,1.38,1.12,2.5,2.5,2.5h5.13v-1h-5.13C16.95382,64.13952,16.28377,63.46954,16.28377,62.63952z M15.28377,57.51952c-0.26996,0.07001-0.54999,0.10004-0.83997,0.10004h-1.10004c-0.82001,0-1.5-0.67004-1.5-1.5v-4.25c0-0.82001,0.67999-1.5,1.5-1.5h1.10004c0.28998,0,0.57001,0.02997,0.83997,0.09998c0.35999,0.08002,0.69,0.21997,1,0.40997c0.50098,0.29773,0.92188,0.7168,1.2309,1.21332h-2.74713v1h3.17804c0.07513,0.28998,0.11823,0.59302,0.11823,0.90668c0,0.31335-0.04303,0.61609-0.11798,0.90582h-2.34967v1h1.91913c-0.30902,0.49695-0.73022,0.91632-1.23151,1.21423C15.97378,57.29955,15.64376,57.43951,15.28377,57.51952z"/><rect width="2" height="1" x="24.916" y="64.144" fill="#63809e"/><path fill="#63809e" d="M57.61379,49.36956h-1.09998c-0.29004,0-0.57001,0.02997-0.84003,0.07996v-4.09998c0-1.38-1.12-2.5-2.5-2.5h-3.40997v1h3.40997c0.83002,0,1.5,0.66998,1.5,1.5v4.40997c-1.63,0.71002-2.78003,2.35004-2.78003,4.23999c0,1.89001,1.15002,3.52002,2.78003,4.24005v4.40997c0,0.83002-0.66998,1.5-1.5,1.5h-2.63c-1.76001,0-3.46002,0.63-4.78998,1.78998l0.65997,0.75c1.14001-0.98999,2.60999-1.53998,4.13-1.53998h2.63c1.38,0,2.5-1.12,2.5-2.5v-4.10999c0.27002,0.04999,0.54999,0.08002,0.84003,0.08002h1.09998c1.38,0,2.5-1.12006,2.5-2.5v-4.25C60.11379,50.4995,58.9938,49.36956,57.61379,49.36956z M59.11379,56.11956c0,0.82996-0.66998,1.5-1.5,1.5h-1.09998c-1.32672,0-2.43549-0.70428-3.06396-1.71423h1.91876v-1h-2.34338c-0.07727-0.29352-0.13147-0.59436-0.13147-0.90582c0-0.30884,0.04004-0.61761,0.11938-0.90668h3.18408v-1H53.4421c0.00067-0.00104,0.00104-0.00226,0.00171-0.0033c0.59894-0.99829,1.74945-1.71997,3.07001-1.71997h1.09998c0.83002,0,1.5,0.67999,1.5,1.5V56.11956z"/><path fill="#fff" d="M23.11617 56.43072c-.19043 0-.36523-.1084-.44922-.28125l-.479-.98145-.479.98145c-.08887.18262-.28125.29785-.48096.28027-.20264-.0127-.37695-.14648-.44189-.33887l-1.13721-3.36523c-.08838-.26172.05176-.5459.31348-.63379.26318-.08594.5459.05273.63379.31348l.74756 2.21191.39502-.80859c.16699-.34375.73145-.34375.89844 0l.39502.80859.74756-2.21191c.08887-.26074.37354-.40039.63379-.31348.26172.08789.40186.37207.31348.63379l-1.13721 3.36523c-.06494.19238-.23926.32617-.44189.33887C23.13717 56.43072 23.12691 56.43072 23.11617 56.43072zM47.1152 56.43072c-.22314 0-.42627-.15039-.48389-.37598l-.50098-1.96289-.62256 1.41309c-.16016.36328-.75488.3623-.91504.00098l-.62305-1.41406-.50098 1.96289c-.06885.2666-.3418.42969-.60791.36035-.26758-.06836-.4292-.34082-.36084-.6084l.85889-3.36523c.05273-.20605.23047-.35645.44287-.37402.21924-.01563.41309.10156.49902.2959l.74951 1.7002.74902-1.69922c.08643-.19531.29004-.31055.49854-.29688.21289.01758.39063.16797.44336.37402l.85889 3.36523c.06836.26758-.09326.54004-.36084.6084C47.19772 56.42583 47.15621 56.43072 47.1152 56.43072zM27.82857 56.43072h-1.91455c-.27637 0-.5-.22363-.5-.5v-3.5459c0-.27637.22363-.5.5-.5h1.91455c.27637 0 .5.22363.5.5s-.22363.5-.5.5h-1.41455v2.5459h1.41455c.27637 0 .5.22363.5.5S28.10494 56.43072 27.82857 56.43072z"/><path fill="#fff" d="M27.82857 54.65826h-1.91455c-.27637 0-.5-.22363-.5-.5s.22363-.5.5-.5h1.91455c.27637 0 .5.22363.5.5S28.10494 54.65826 27.82857 54.65826zM50.84225 56.43072H48.9277c-.27637 0-.5-.22363-.5-.5v-3.5459c0-.27637.22363-.5.5-.5h1.91455c.27637 0 .5.22363.5.5s-.22363.5-.5.5H49.4277v2.5459h1.41455c.27637 0 .5.22363.5.5S51.11861 56.43072 50.84225 56.43072z"/><path fill="#fff" d="M50.84225 54.65826H48.9277c-.27637 0-.5-.22363-.5-.5s.22363-.5.5-.5h1.91455c.27637 0 .5.22363.5.5S51.11861 54.65826 50.84225 54.65826zM32.05318 56.43072h-2.05371c-.27637 0-.5-.22363-.5-.5v-3.5459c0-.27637.22363-.5.5-.5s.5.22363.5.5v3.0459h1.55371c.27637 0 .5.22363.5.5S32.32955 56.43072 32.05318 56.43072zM39.90182 56.43072c-1.34229 0-2.43408-1.0918-2.43408-2.43457 0-1.33887 1.0918-2.42773 2.43408-2.42773 1.33887 0 2.42822 1.08887 2.42822 2.42773C42.33004 55.33892 41.24068 56.43072 39.90182 56.43072zM39.90182 52.56841c-.79053 0-1.43408.64063-1.43408 1.42773 0 .79102.64355 1.43457 1.43408 1.43457.7876 0 1.42822-.64355 1.42822-1.43457C41.33004 53.20904 40.68941 52.56841 39.90182 52.56841zM35.12936 56.43072c-1.29932 0-2.35645-1.05664-2.35645-2.35645s1.05713-2.35742 2.35645-2.35742c.53516 0 1.04492.18262 1.47412.52832.21533.17383.24902.48828.07568.70313-.17285.21582-.48682.25-.70264.07617-.17432-.14063-.4624-.30762-.84717-.30762-.74805 0-1.35645.60938-1.35645 1.35742s.6084 1.35645 1.35645 1.35645c.38477 0 .67285-.16699.84717-.30762.21436-.17383.5293-.13965.70264.07617.17334.21484.13965.5293-.07568.70313C36.17428 56.2481 35.66451 56.43072 35.12936 56.43072z"/><path fill="#a1b0c6" d="M10.15767 62.23443c-1.01758 0-1.84521-.82715-1.84521-1.84473s.82764-1.8457 1.84521-1.8457 1.84521.82813 1.84521 1.8457S11.17525 62.23443 10.15767 62.23443zM10.15767 59.544c-.46582 0-.84521.37891-.84521.8457 0 .46582.37939.84473.84521.84473s.84521-.37891.84521-.84473C11.00289 59.9229 10.6235 59.544 10.15767 59.544zM55.76656 11.10552h-3.84375c-.89014 0-1.61426-.72461-1.61426-1.61426 0-.55176.28906-1.06348.74268-1.35352.03662-.93652.96484-1.6543 1.87646-1.45313.36133-.49414.94775-.80371 1.57715-.80371 1.07617 0 1.95166.87598 1.95166 1.95215 0 .00293 0 .00488 0 .00781.60449.2627 1.01758.86426 1.01758 1.55664C57.47408 10.33892 56.70797 11.10552 55.76656 11.10552zM52.59859 7.64947c-.30225 0-.54834.24609-.54834.54883 0 .03906.00439.0791.0127.11914.04053.19629-.04004.39844-.20508.5127-.03223.02246-.12939.08398-.1665.09863-.229.08789-.38281.31445-.38281.5625 0 .33887.27539.61426.61426.61426h3.84375c.39014 0 .70752-.31738.70752-.70801 0-.35742-.26758-.65625-.62207-.69434-.14795-.01563-.28076-.09668-.36279-.22168-.08203-.12402-.10449-.27734-.06152-.41992.01904-.0625.02881-.1416.02881-.22852 0-.52539-.42676-.95215-.95166-.95215-.38965 0-.74512.24219-.88477.60352-.05322.13867-.16504.24609-.30518.29395-.13965.04785-.29443.03125-.4209-.0459C52.80514 7.67779 52.70309 7.64947 52.59859 7.64947z"/><rect width="1" height="1.097" x="17.905" y="8.491" fill="#a1b0c6"/><rect width="1" height="1.097" x="17.905" y="11.381" fill="#a1b0c6"/><rect width="1.097" height="1" x="19.302" y="9.984" fill="#a1b0c6"/><rect width="1.097" height="1" x="16.412" y="9.984" fill="#a1b0c6"/><rect width="1" height="1.097" x="60.385" y="31.307" fill="#a1b0c6"/><rect width="1" height="1.097" x="60.385" y="34.197" fill="#a1b0c6"/><rect width="1.097" height="1" x="61.782" y="32.8" fill="#a1b0c6"/><rect width="1.097" height="1" x="58.891" y="32.8" fill="#a1b0c6"/><rect width="1" height="3.587" x="9.255" y="35.062" fill="#a1b0c6"/><rect width="3.587" height="1" x="7.961" y="36.355" fill="#a1b0c6"/><rect width="1" height="3.587" x="61.255" y="59.562" fill="#a1b0c6" transform="rotate(-45.005 61.756 61.355)"/><rect width="3.587" height="1" x="59.962" y="60.855" fill="#a1b0c6" transform="rotate(-45 61.755 61.355)"/></svg>