<svg xmlns="http://www.w3.org/2000/svg" xmlns:xlink="http://www.w3.org/1999/xlink" data-name="Layer 1" viewBox="0 0 24 24"><defs><linearGradient id="a" x1="7.382" x2="29.212" y1="12.002" y2="11.96" gradientUnits="userSpaceOnUse"><stop offset="0" stop-color="#96369f"/><stop offset="1" stop-color="#01b3ed"/></linearGradient><linearGradient id="b" x1="7.371" x2="29.201" y1="6.009" y2="5.966" xlink:href="#a"/><linearGradient id="c" x1="7.379" x2="29.208" y1="10.009" y2="9.966" xlink:href="#a"/><linearGradient id="d" x1="7.386" x2="29.216" y1="14.005" y2="13.963" xlink:href="#a"/><linearGradient id="e" x1="7.394" x2="29.224" y1="18.019" y2="17.976" xlink:href="#a"/></defs><path fill="url(#a)" d="M8,24H9a1,1,0,0,0,0-2H8a3,3,0,0,1-3-3V5A3,3,0,0,1,8,2h8a3,3,0,0,1,3,3V9a1,1,0,0,0,2,0V5a5.006,5.006,0,0,0-5-5H8A5.006,5.006,0,0,0,3,5V19A5.006,5.006,0,0,0,8,24Z"/><path fill="url(#b)" d="M16,5H8A1,1,0,0,0,8,7h8a1,1,0,0,0,0-2Z"/><path fill="url(#c)" d="M17,10a1,1,0,0,0-1-1H8a1,1,0,0,0,0,2h8A1,1,0,0,0,17,10Z"/><path fill="url(#d)" d="M8,13a1,1,0,0,0,0,2h4a1,1,0,0,0,0-2Z"/><path fill="url(#e)" d="M18.879,12.879l-5.657,5.657a1,1,0,0,0-.264.467l-.929,3.757a1,1,0,0,0,.264.947,1.013,1.013,0,0,0,.947.264L17,23.042a.992.992,0,0,0,.467-.264l5.656-5.656a3,3,0,1,0-4.242-4.243Zm-2.632,8.288-1.879.465.465-1.879,3.339-3.339,1.414,1.414Zm5.46-5.46L21,16.414,19.586,15l.707-.707a1,1,0,0,1,1.414,0A1.012,1.012,0,0,1,21.707,15.707Z"/></svg>